<svg width="20" height="20" viewBox="0 0 20 20" fill="none" xmlns="http://www.w3.org/2000/svg">
<rect x="0.5" y="0.5" width="19" height="19" rx="9.5" stroke="white"/>
<mask id="path-2-inside-1_10_1120" fill="white">
<path fill-rule="evenodd" clip-rule="evenodd" d="M10 20C4.5 20 0 15.5001 0 9.95021C0.05 4.45032 4.5 -0.0495863 10.05 0.00041267C15.55 0.0504116 20 4.50032 20 10.1002C19.95 15.5501 15.5 20 10 20Z"/>
</mask>
<path fill-rule="evenodd" clip-rule="evenodd" d="M10 20C4.5 20 0 15.5001 0 9.95021C0.05 4.45032 4.5 -0.0495863 10.05 0.00041267C15.55 0.0504116 20 4.50032 20 10.1002C19.95 15.5501 15.5 20 10 20Z" fill="#EB0029"/>
<path d="M0 9.95021L-0.5 9.94566V9.95021H0ZM10.05 0.00041267L10.0545 -0.499567L10.0545 -0.499567L10.05 0.00041267ZM20 10.1002L20.5 10.1048V10.1002H20ZM10 19.5C4.77775 19.5 0.5 15.2256 0.5 9.95021H-0.5C-0.5 15.7746 4.22225 20.5 10 20.5V19.5ZM0.499979 9.95475C0.547532 4.72406 4.77848 0.452943 10.0455 0.500392L10.0545 -0.499567C4.22152 -0.552115 -0.447532 4.17658 -0.499979 9.94566L0.499979 9.95475ZM10.0455 0.500392C15.2705 0.547892 19.5 4.7741 19.5 10.1002H20.5C20.5 4.22654 15.8295 -0.447068 10.0545 -0.499567L10.0455 0.500392ZM19.5 10.0956C19.4525 15.2722 15.2246 19.5 10 19.5V20.5C15.7754 20.5 20.4475 15.828 20.5 10.1048L19.5 10.0956Z" fill="black" fill-opacity="0.2" style="mix-blend-mode:plus-darker" mask="url(#path-2-inside-1_10_1120)"/>
<path fill-rule="evenodd" clip-rule="evenodd" d="M16.206 7.00513L16.2059 7.00508C15.7428 6.55541 15.2534 6.08027 14.8215 5.69693L14.7778 5.6663C14.705 5.60785 14.6229 5.56201 14.535 5.53068L14.2016 5.46849C11.9016 5.03934 4.44648 3.64828 4.29312 3.66693C4.24777 3.67329 4.20441 3.68973 4.16625 3.71506L4.12469 3.74787C4.07351 3.79985 4.03464 3.86264 4.01094 3.93162L4 3.96006V4.11537V4.13943C4.50614 5.54881 5.82096 8.69629 7.03498 11.6025L7.03499 11.6025C8.06137 14.0595 9.01571 16.3441 9.34842 17.26L9.34854 17.2604C9.39232 17.3961 9.47544 17.6538 9.63061 17.6669H9.66561C9.74873 17.6669 10.1031 17.1988 10.1031 17.1988C10.1031 17.1988 16.4381 9.51629 17.079 8.69817C17.162 8.59739 17.2352 8.48899 17.2978 8.37442C17.3302 8.19207 17.2646 8.00606 17.125 7.88442C16.8521 7.63245 16.5357 7.32525 16.206 7.00513ZM11.7284 8.77911L14.4322 6.53693L16.0181 7.99817L11.7284 8.77911ZM6.02344 4.81756L10.6784 8.63255L13.555 6.20662L6.02344 4.81756ZM11.0984 9.63223L15.8628 8.86442L10.4159 15.4269L11.0984 9.63223ZM10.2894 9.35442L5.3916 5.19818L9.58065 15.4313L10.2894 9.35442Z" fill="white"/>
</svg>
