<svg width="20" height="20" viewBox="0 0 20 20" fill="none" xmlns="http://www.w3.org/2000/svg">
<rect x="0.5" y="0.5" width="19" height="19" rx="9.5" stroke="white"/>
<path d="M19.6986 12.419C18.363 17.7762 12.937 21.0365 7.57919 19.7006C2.22361 18.365 -1.03667 12.9387 0.299485 7.58197C1.63447 2.22419 7.06044 -1.03634 12.4166 0.299234C17.7741 1.63481 21.0341 7.0617 19.6984 12.4191L19.6985 12.419H19.6986Z" fill="#22A079"/>
<path d="M19.4558 12.3587L19.444 12.406C18.1218 17.601 12.8477 20.7566 7.63968 19.458C2.41808 18.1559 -0.76069 12.8653 0.542053 7.64248L0.542068 7.64242C1.84367 2.41861 7.13396 -0.760352 12.3561 0.541807L12.3561 0.54181C17.5796 1.84398 20.7582 7.13516 19.4558 12.3587Z" stroke="black" stroke-opacity="0.2" stroke-width="0.5" style="mix-blend-mode:plus-darker"/>
<path fill-rule="evenodd" clip-rule="evenodd" d="M11.2654 11.1336C11.1947 11.1389 10.8294 11.1607 10.0145 11.1607C9.36631 11.1607 8.90611 11.1413 8.74465 11.1336C6.23979 11.0234 4.37012 10.5874 4.37012 10.0653C4.37012 9.54326 6.23979 9.10781 8.74465 8.99586V10.6994C8.90846 10.7111 9.3775 10.7388 10.0257 10.7388C10.8035 10.7388 11.193 10.7064 11.2631 10.6999V8.99704C13.7626 9.1084 15.6282 9.54444 15.6282 10.0653C15.6282 10.5862 13.7632 11.0223 11.2631 11.133L11.2654 11.1336ZM11.2654 8.82085V7.29648H14.7537V4.97192H5.25634V7.29648H8.74406V8.82026C5.90922 8.95049 3.77734 9.51203 3.77734 10.1849C3.77734 10.8579 5.90922 11.4188 8.74406 11.5496V16.4345H11.2648V11.5479C14.0932 11.4176 16.2215 10.8567 16.2215 10.1844C16.2215 9.51203 14.095 8.95108 11.2648 8.82026L11.2654 8.82085Z" fill="white"/>
</svg>
