<svg width="20" height="20" viewBox="0 0 20 20" fill="none" xmlns="http://www.w3.org/2000/svg">
<rect x="0.5" y="0.5" width="19" height="19" rx="9.5" stroke="white"/>
<circle cx="10" cy="10" r="10" fill="#F8F8F8"/>
<circle cx="10" cy="10" r="9.75" stroke="black" stroke-opacity="0.2" stroke-width="0.5" style="mix-blend-mode:plus-darker"/>
<path d="M9.97213 4L9.89258 4.27021V12.1105L9.97213 12.1899L13.6114 10.0386L9.97213 4Z" fill="#343434"/>
<path d="M9.9724 4L6.33301 10.0386L9.9724 12.1899V8.38441V4Z" fill="#8C8C8C"/>
<path d="M9.97245 12.8789L9.92761 12.9335V15.7264L9.97245 15.8573L13.614 10.7288L9.97245 12.8789Z" fill="#3C3C3B"/>
<path d="M9.9724 15.8573V12.8789L6.33301 10.7288L9.9724 15.8573Z" fill="#8C8C8C"/>
<path d="M9.97266 12.1897L13.612 10.0385L9.97266 8.38428V12.1897Z" fill="#141414"/>
<path d="M6.33301 10.0388L9.9724 12.19V8.38452L6.33301 10.0388Z" fill="#393939"/>
</svg>
