<svg width="20" height="20" viewBox="0 0 20 20" fill="none" xmlns="http://www.w3.org/2000/svg">
<rect x="0.5" y="0.5" width="19" height="19" rx="9.5" stroke="white"/>
<circle cx="9.99902" cy="10" r="10" fill="#BA9F33"/>
<circle cx="9.99902" cy="10" r="9.75" stroke="black" stroke-opacity="0.2" stroke-width="0.5" style="mix-blend-mode:plus-darker"/>
<path fill-rule="evenodd" clip-rule="evenodd" d="M4.37124 8.93214C4.3146 8.88041 4.25476 8.82857 4.19972 8.77683C4.14468 8.7251 4.08814 8.67326 4.0315 8.62153L3.86318 8.46153C3.83566 8.43401 3.80654 8.40979 3.77902 8.38217C3.7515 8.35795 3.71918 8.33043 3.69166 8.30611C3.4683 8.09417 3.24366 7.88222 3.0234 7.67017C3.25156 7.87891 3.47492 8.08617 3.70308 8.29801L3.78233 8.37737C3.80985 8.40478 3.83897 8.4291 3.86649 8.45662L4.0347 8.61193C4.09134 8.66366 4.14638 8.7155 4.20302 8.77193C4.25966 8.82835 4.3147 8.8803 4.37134 8.93193L4.37124 8.93214ZM1.40641 8.90015C1.40641 8.90015 2.21868 8.9842 2.61516 9.04084C2.98241 9.09268 4.13132 9.269 4.13132 9.269L1.40641 8.90015ZM1.40636 8.90014C1.63452 8.91956 1.86268 8.94377 2.09084 8.96809C2.20732 8.9794 2.319 8.9923 2.43068 9.00361L2.60209 9.02313C2.65873 9.03113 2.71377 9.03924 2.77041 9.04734L3.45009 9.15572L3.78982 9.21236C3.9015 9.23177 4.01318 9.25289 4.12966 9.2723C4.01798 9.261 3.9015 9.24478 3.78982 9.22857L3.45009 9.18004L2.77041 9.07977C2.71377 9.07166 2.65873 9.06025 2.60209 9.05225L2.43057 9.03252C2.31889 9.02121 2.20241 9.005 2.09073 8.99198C1.86257 8.96457 1.63441 8.93534 1.40625 8.89982L1.40636 8.90014ZM4.05085 9.48062C4.05085 9.48062 3.18355 9.70078 2.89064 9.78494C2.60264 9.86419 1.73043 10.1296 1.73043 10.1296L4.05075 9.48073L4.05085 9.48062Z" fill="#CFB66C"/>
<path fill-rule="evenodd" clip-rule="evenodd" d="M4.05124 9.48047C3.85871 9.53711 3.66724 9.59215 3.47193 9.64399L2.89263 9.7993C2.70009 9.85594 2.50863 9.91098 2.31663 9.96762L2.02863 10.0469C1.93316 10.0744 1.83609 10.0986 1.73743 10.1262C1.83279 10.0942 1.92996 10.0615 2.02543 10.034L2.31343 9.9418C2.50596 9.88186 2.69743 9.82522 2.88943 9.76538C3.08516 9.71684 3.2778 9.665 3.47353 9.61807C3.65956 9.57114 3.8554 9.52431 4.05124 9.48058V9.48047ZM1.85266 10.6634C1.94802 10.6278 3.04839 10.1149 3.30407 9.99513C3.43207 9.93518 3.80413 9.80313 3.80413 9.80313L1.85266 10.6634Z" fill="#CFB66C"/>
<path fill-rule="evenodd" clip-rule="evenodd" d="M1.85167 10.6636C1.93572 10.6316 2.01508 10.5924 2.09594 10.5552L2.3354 10.4435L2.81604 10.2122C2.97604 10.1361 3.13156 10.0522 3.29658 9.98071C3.38074 9.94519 3.4649 9.91607 3.54895 9.88855L3.67695 9.84813C3.72058 9.83682 3.76111 9.82381 3.80495 9.8125C3.64495 9.88855 3.47652 9.9533 3.31631 10.0276C3.15631 10.107 2.99268 10.1718 2.82756 10.2429L2.33892 10.458C2.17487 10.5245 2.01487 10.5956 1.85156 10.6636H1.85167ZM1.95801 11.1116C1.95801 11.1116 2.9547 10.5275 3.29774 10.3398C3.47737 10.2395 4.05827 9.95139 4.05827 9.95139L1.95801 11.1116Z" fill="#CFB66C"/>
<path fill-rule="evenodd" clip-rule="evenodd" d="M1.95898 11.1117C2.1272 11.0081 2.29872 10.9029 2.47024 10.7961L2.72624 10.6407C2.8136 10.589 2.89776 10.5405 2.98682 10.4887C3.07418 10.4369 3.15834 10.3851 3.2473 10.3366C3.28965 10.3105 3.33403 10.2877 3.38 10.2687L3.51589 10.2007C3.69552 10.1134 3.87514 10.0243 4.06448 9.94824C3.89296 10.0567 3.71653 10.149 3.54021 10.2443C3.45285 10.2929 3.36378 10.3366 3.27642 10.3851C3.18906 10.4337 3.1049 10.4855 3.01584 10.5325C2.92848 10.5842 2.84432 10.6327 2.75536 10.6797L2.49157 10.8237L1.9592 11.1117H1.95898ZM4.05112 10.0792C4.05112 10.0792 3.43139 10.555 3.23075 10.7071C3.03011 10.8592 2.43949 11.2864 2.43949 11.2864L4.05112 10.0792Z" fill="#CFB66C"/>
<path fill-rule="evenodd" clip-rule="evenodd" d="M7.60716 13.9159L7.29004 13.3156L7.47447 12.5647L8.78999 12.0567L8.23009 10.9079L8.50679 9.74768L9.02625 8.70875L10.6315 8.45637L11.811 7.33179L14.358 7.52432L14.8579 10.2476L13.8952 13.6764L13.3467 15.4516L11.1233 15.5357L10.091 14.8205L8.88225 14.3156L7.60716 13.9159Z" fill="#E2CC85"/>
<path fill-rule="evenodd" clip-rule="evenodd" d="M11.507 13.8964C11.507 13.8964 11.1995 14.0372 10.675 14.0048C10.5232 13.8009 9.46021 13.7055 9.46021 13.7055C9.46021 13.7055 9.32751 13.665 9.09285 13.7621C8.85669 13.8581 8.63333 13.8463 8.42458 13.898C8.21583 13.9497 8.00858 13.678 7.84858 13.6213C7.68858 13.5615 7.47642 13.4175 7.47642 13.4175L7.02842 13.3737L6.12879 12.9935L4.69957 11.5696L4.31119 12.1776L4.19141 12.93L4.62351 13.8216L5.78693 14.8815L8.05551 15.4575L9.40015 15.0613L11.0846 14.3493L11.507 13.8963V13.8964Z" fill="#F1D789"/>
<path fill-rule="evenodd" clip-rule="evenodd" d="M3.447 8.864L3.735 7.99189L4.07815 7.42869L5.18322 7.33643L4.85148 8.30411L3.92764 9.94816L4.31111 11.4158L3.63154 11.7555L3.42268 11.4352L3.25447 10.7006L3.24316 9.87531L3.447 8.864Z" fill="#F4ECB4"/>
<path fill-rule="evenodd" clip-rule="evenodd" d="M4.68695 13.8366L4.47501 13.5405C4.47501 13.5405 4.41837 13.3997 4.4508 13.2767C4.4828 13.1521 4.47821 13.144 4.4621 13.0971C4.446 13.0501 4.31 12.8883 4.3181 12.7491C4.3261 12.6083 4.3068 12.5614 4.41026 12.4498C4.51864 12.3414 4.48632 12.1537 4.48632 12.1537L4.62712 12.2411L4.65912 12.1925C4.65912 12.1925 4.71085 12.233 4.71085 12.2961C4.72216 12.2087 4.67522 11.8042 4.782 11.712C4.88877 11.6198 5.0781 12.144 5.0781 12.144L4.96162 11.3835L4.66221 10.6036L4.12984 9.89162L4.09784 9.10677V9.03882C4.09784 9.03882 3.85346 9.41429 3.78552 9.71082C3.73698 9.91466 3.85346 10.1622 3.82925 10.4551C3.80973 10.7464 3.78552 10.7237 3.85666 10.8391C3.92781 10.9546 4.10104 11.1919 4.03309 11.3634C3.97325 11.5107 3.7693 11.4071 3.7693 11.4071C3.7693 11.4071 3.72888 11.5268 3.67384 11.5706C3.65442 11.4994 3.63341 11.4541 3.59458 11.4106C3.59128 11.4381 3.58328 11.4753 3.58328 11.4753C3.58328 11.4753 3.54765 11.3636 3.51202 11.2228C3.4636 11.0352 3.41176 10.7876 3.36482 10.6549C3.34541 10.731 3.29688 10.9623 3.29688 10.9623L3.3244 11.3184L3.45709 11.807L3.58509 12.127L3.70968 12.5186L3.81794 12.7816L3.9053 12.9823L3.98136 13.4338L4.34861 13.8221L4.54445 13.9095L4.68674 13.8367L4.68695 13.8366Z" fill="#F3E19D"/>
<path fill-rule="evenodd" clip-rule="evenodd" d="M3.63925 8.15199C3.63925 8.15199 3.37547 8.59999 3.29952 9.05162C3.22357 9.50324 3.15552 9.98047 3.20352 10.5953C3.25205 11.2151 3.34432 11.5953 3.41877 11.8672C3.54677 12.3187 3.87829 12.9465 3.87829 12.9465L3.8896 12.9222C3.83387 12.8166 3.7894 12.7054 3.75691 12.5905C3.71317 12.419 3.69696 12.2151 3.65653 12.1229C3.62091 12.0307 3.56107 11.9513 3.53195 11.8381C3.50443 11.7297 3.49995 11.5582 3.41547 11.4304C3.37984 11.3785 3.33611 11.2427 3.3232 11.1068C3.30699 10.9028 3.33131 10.6747 3.31189 10.487C3.27627 10.1747 3.25205 9.96276 3.28437 9.79924C3.31669 9.63572 3.48512 9.17151 3.58869 8.80255C3.65664 8.56628 3.61611 8.36724 3.74069 8.1617C3.86528 7.95786 3.94144 7.77823 3.96885 7.65364C4.00085 7.54036 3.63883 8.15199 3.63883 8.15199H3.63925Z" fill="#F2E8B0"/>
<path fill-rule="evenodd" clip-rule="evenodd" d="M4.89107 7.97241C4.89107 7.97241 4.75517 8.01295 4.69043 8.08409C4.62568 8.15204 4.59816 8.20868 4.5108 8.32356C4.42344 8.43844 4.41853 8.53231 4.34728 8.67631C4.27613 8.81711 4.11912 9.02905 4.09971 9.10511C4.08029 9.18116 4.04797 9.53711 4.00755 9.70543C3.97192 9.87375 4.04797 10.0809 4.04797 10.0809L4.14013 10.0614C4.14013 10.0614 4.14013 10.1812 4.2324 10.2621C4.32456 10.3414 4.34077 9.99343 4.34077 9.99343L4.68541 8.83001L5.20477 8.47727L5.26141 8.19247L4.89085 7.97241H4.89107Z" fill="#F5EEC0"/>
<path fill-rule="evenodd" clip-rule="evenodd" d="M5.14306 8.50001C5.14306 8.50001 4.89869 8.51612 4.77901 8.60358C4.73048 8.6391 4.71106 8.66822 4.65933 8.71196C4.56386 8.79121 4.46669 8.86406 4.41986 8.96796C4.36802 9.07142 4.31138 9.22844 4.27256 9.52454C4.25634 9.64913 4.25634 9.76401 4.24504 9.86438C4.22882 10.0003 4.20461 10.1086 4.21752 10.1844C4.23373 10.3397 4.39394 10.4206 4.40952 10.597L4.74125 10.4288L5.05357 9.19729L5.71704 8.78129L5.34157 8.3606L5.14264 8.49926L5.14306 8.50001Z" fill="#E6DB9D"/>
<path fill-rule="evenodd" clip-rule="evenodd" d="M3.39268 16.7924C3.39407 16.7802 3.39546 16.768 3.39684 16.7556C3.44527 16.3396 3.45348 16.0243 3.489 15.8268C3.54074 15.5469 3.57636 15.4428 3.56826 15.3381C3.55695 15.1699 3.54404 15.0469 3.56026 14.9174C3.58447 14.7459 3.75279 14.542 3.74799 14.4012C3.74468 14.2895 3.68804 14.2168 3.63951 14.1488C3.59098 14.0809 3.55215 14.0243 3.55215 14.0243C3.55215 14.0243 3.88388 13.7961 3.88068 12.877C3.88746 12.8789 3.89398 12.8816 3.9001 12.8851L4.06351 13.3494L4.17519 13.4853L4.60399 14.2846L5.15578 14.8203L5.97124 15.3688L6.4826 15.9253L6.53434 17.4091L5.86607 18.2764L5.75663 18.4746C4.88716 18.0381 4.08986 17.4707 3.39258 16.7923L3.39268 16.7924Z" fill="#E5CB7A"/>
<path fill-rule="evenodd" clip-rule="evenodd" d="M5.43445 18.212C5.43445 18.212 5.44575 18.0275 5.59786 17.9077C5.62218 17.9482 5.63829 17.9871 5.63349 18.0161C5.66101 17.9677 5.85354 17.657 6.28885 17.576C6.72415 17.4968 6.82933 17.1796 6.82933 17.1796L7.75317 16.3398L8.80981 15.3674L10.0946 14.9158L10.695 14.7685C10.695 14.7685 10.7063 14.8123 10.6837 14.9093C10.7953 14.9013 11.0429 14.8447 11.3002 14.754C11.4037 14.7136 11.5009 14.6974 11.5526 14.7508C11.6287 14.822 11.64 14.9903 11.6448 15.0906C11.7694 15.063 11.9134 14.9434 12.0288 14.9547C12.2133 14.9741 12.3767 15.1909 12.5645 15.1909C12.812 15.1909 12.9236 15.0388 13.0968 14.919C13.2004 14.8479 13.3492 14.759 13.4334 14.699C13.634 14.5517 15.757 13.9028 15.757 13.9028L16.5013 13.9514L16.6211 14.7507L16.5571 16.8403C16.5492 16.8479 16.5413 16.8558 16.5333 16.8634L13.149 18.6309L8.45781 19.3501C7.40696 19.1784 6.39288 18.8296 5.45877 18.3185L5.43477 18.2118L5.43445 18.212Z" fill="#D8C173"/>
<path fill-rule="evenodd" clip-rule="evenodd" d="M3.67773 17.0582C3.7444 16.9188 3.80435 16.8022 3.81491 16.7605C3.82323 16.8446 3.83848 17.029 3.8692 17.225C3.8047 17.1702 3.74088 17.1146 3.67773 17.0581V17.0582Z" fill="#F1D789"/>
<path fill-rule="evenodd" clip-rule="evenodd" d="M7.10426 19.0248L7.71098 18.8561L7.76272 18.8723C7.76272 18.8723 7.79024 18.8885 7.79024 18.9434C7.86629 18.8998 7.93104 18.9078 7.97797 18.8788C8.00218 18.9305 8.0264 19.1021 8.13328 19.1231C8.24485 19.1474 8.36464 19.0745 8.48602 18.9824C8.6057 18.8869 8.74202 18.7671 8.84517 18.7186C8.88301 18.7882 8.91653 18.86 8.94554 18.9337C9.08144 18.8254 9.3177 18.3853 9.65424 18.3933C9.75151 18.1634 9.91401 17.9671 10.1216 17.8286C10.434 17.6166 10.6297 17.6004 10.8741 17.6198C10.9711 17.4937 11.0907 17.3867 11.2268 17.3043C11.2672 17.3205 11.3789 17.3885 11.5181 17.3237C11.6589 17.2591 11.8174 17.0082 12.0262 16.9759C12.1387 16.9604 12.253 16.9844 12.3498 17.0438C12.3498 17.0438 12.9578 16.4402 13.3773 16.2395C13.3611 16.191 13.3288 16.0082 13.8206 15.6036C13.8482 15.6279 13.8287 15.6959 13.8482 15.6996C13.8562 15.6996 13.9762 15.6479 14.128 15.5313C14.3158 15.3906 14.5406 15.2433 14.6765 15.2029C14.9325 15.1268 15.2041 15.2821 15.2041 15.2821C15.2272 15.2659 15.2529 15.2539 15.2802 15.2465C15.3448 15.2352 15.3917 15.2271 15.4274 15.2145C15.4242 15.2986 15.4711 15.4426 15.4274 15.5672C15.478 15.5957 15.5317 15.6185 15.5874 15.6352C15.5599 15.695 15.5 15.8471 15.3997 15.92C15.4838 15.9604 15.4951 16.0073 15.6149 16.048C15.5663 16.1159 15.4869 16.2325 15.4515 16.304C15.4158 16.38 15.2879 16.6955 15.2313 16.8152C15.1715 16.935 15.0906 17.1551 15.0517 17.1992C15.0127 17.2434 14.872 17.4306 14.7637 17.5227C14.8597 17.4871 15.2524 17.3674 15.419 17.3221C15.3694 17.3949 15.118 17.7679 14.8763 18.1266C12.5352 19.5298 9.70335 19.8576 7.10352 19.0264L7.10426 19.0248Z" fill="#E0CD81"/>
<path fill-rule="evenodd" clip-rule="evenodd" d="M5.18295 8.45637C5.18295 8.45637 5.04226 8.45637 5.01474 8.47579C4.98722 8.4952 5.15554 8.53573 5.20727 8.55515C5.259 8.57456 5.37068 8.66352 5.3998 8.73477C5.42732 8.80272 6.41111 9.19909 6.41111 9.19909L7.1069 9.16347L7.34679 8.83205L6.89047 8.43237L7.21047 7.48901L6.78658 7.55696L5.76716 8.16496L5.2558 8.3608L5.18295 8.45637Z" fill="#DFC57C"/>
<path fill-rule="evenodd" clip-rule="evenodd" d="M6.711 8.76875C6.73147 8.8019 6.76806 8.82161 6.807 8.82048C6.951 8.82048 7.08358 8.85611 7.13862 8.92886C7.23089 9.04545 7.48657 9.41761 7.48657 9.41761L8.0982 9.63766L8.13766 8.91745L7.4694 8.45312L6.70886 8.73302V8.76865H6.71057L6.711 8.76875Z" fill="#E5CC7C"/>
<path fill-rule="evenodd" clip-rule="evenodd" d="M6.59087 9.03566C6.59087 9.03566 6.70244 9.04377 6.84324 8.99193C6.98404 8.94009 7.2154 8.82852 7.31578 8.87225C7.45647 8.93209 7.42735 9.11982 7.57956 9.28825C7.67172 9.39182 7.84004 9.38862 7.93551 9.5003C8.03098 9.61198 8.3594 9.56014 8.3594 9.56014L8.48399 10.2321L7.98404 10.873L7.82052 11.6691H7.14447L6.52687 11.424L6.22266 10.688L6.37476 9.94372L6.59087 9.03566Z" fill="#D2C281"/>
<path fill-rule="evenodd" clip-rule="evenodd" d="M7.89857 9.06789C7.91533 9.07306 7.93276 9.07579 7.9503 9.076C7.93089 9.09221 7.89035 9.12773 7.90657 9.22C7.92278 9.31227 7.97451 9.42875 7.93089 9.49989C7.96571 9.53797 7.99168 9.58329 8.00694 9.63259C8.03446 9.71195 8.04257 9.78469 8.22209 9.79611C8.19618 9.81206 8.17229 9.83107 8.15094 9.85275C8.15094 9.85275 8.27553 9.96112 8.33867 10.0614C8.40331 10.0586 8.57483 10.0053 8.57483 10.0053L8.61046 10.0296L8.68651 9.9976C8.68651 9.9976 8.61537 9.97008 8.6671 9.79696C8.71563 9.64485 8.75937 9.65296 8.7631 9.64165C8.76683 9.63035 8.79873 9.47013 8.79873 9.40539C8.82294 9.32133 8.84235 9.06565 8.84235 9.06565L8.79062 8.50096L8.49942 8.32453L8.26262 8.09595L8.03926 8.51664L7.89217 8.66331L7.88086 9.02736L7.89857 9.06789Z" fill="#E2C270"/>
<path fill-rule="evenodd" clip-rule="evenodd" d="M8.59961 8.59551C8.59961 8.59551 8.65134 8.74271 8.67086 8.85599C8.67774 8.83397 8.68155 8.8111 8.68217 8.78804C8.68217 8.78804 8.7226 9.0114 8.7306 9.10367C8.74681 9.10036 8.7626 9.09556 8.76622 9.11167C8.76985 9.12778 8.80676 9.30751 8.79822 9.40778C8.8656 9.29661 8.95884 9.20337 9.07001 9.13599C9.13476 9.09546 9.21081 9.05183 9.29017 9.04852C9.41476 9.04532 9.50532 9.12788 9.65422 9.12788C10.0134 9.12788 10.3387 8.8641 10.5782 8.78324C10.7545 8.7233 10.9066 8.67967 11.0134 8.5825C11.0652 8.53887 11.1575 8.4418 11.2415 8.2977C11.3532 8.1057 11.4697 7.93855 11.5863 7.91754C11.5335 7.92723 11.4799 7.93102 11.4263 7.92884C11.4263 7.92884 11.4619 7.89322 11.5223 7.84468C11.5826 7.79615 11.655 7.73631 11.7584 7.73631C11.943 7.73631 12.0351 7.76372 12.1387 7.76372C12.2423 7.76052 12.3021 7.73631 12.3021 7.73631C12.3021 7.73631 12.4106 7.81236 12.6549 7.81236C12.8992 7.81556 13.0626 7.83658 13.1905 7.84799C13.3184 7.8594 13.7471 7.81236 13.8701 7.81599C13.9503 7.81908 14.029 7.83835 14.1016 7.87263L13.7051 6.72063L12.2809 5.47583L11.433 6.07615L10.1287 7.38036L8.8666 7.84799L8.60281 8.1441V8.59551H8.59961Z" fill="#CCB360"/>
<path fill-rule="evenodd" clip-rule="evenodd" d="M11.4309 7.93536C11.4309 7.93536 11.4665 7.89984 11.5262 7.85131C11.586 7.80277 11.659 7.74283 11.7625 7.74283C11.9469 7.74283 12.0392 7.77035 12.1428 7.77035C12.2463 7.76715 12.3062 7.74283 12.3062 7.74283C12.3062 7.74283 12.4148 7.81877 12.6589 7.81877C12.9033 7.82197 13.0667 7.84299 13.1946 7.85429C13.3225 7.8656 13.7512 7.81877 13.8742 7.82229C13.9543 7.82531 14.033 7.84458 14.1055 7.87893L13.9259 7.35947L13.7173 6.96309L13.1217 6.31093C13.1217 6.31093 12.4071 5.89024 12.4016 5.88704C12.3984 5.88384 12.1541 5.81909 12.1541 5.81909L11.5068 6.21067L10.9195 7.73013L10.9082 8.05013L11.2884 8.22976C11.3838 8.06976 11.4891 7.94176 11.5878 7.92555C11.4987 7.93525 11.4308 7.93525 11.4308 7.93525L11.4309 7.93536Z" fill="#D5B457"/>
<path fill-rule="evenodd" clip-rule="evenodd" d="M11.4229 8.04381C11.3663 8.04701 11.3194 8.0357 11.3064 7.99527C11.2579 7.85938 11.2191 7.83997 11.1784 7.83997C11.1378 7.83997 11.083 7.92733 11.0504 7.93533C11.0179 7.94333 10.9793 7.83506 10.9793 7.83506L10.9437 7.81885C10.9437 7.81885 10.7349 7.95474 10.5877 8.11495C10.4405 8.27517 10.1993 8.54706 10.091 8.59549C9.98259 8.64391 9.61033 8.66023 9.48297 8.68775C9.35561 8.71527 9.21438 8.80754 9.19497 8.82855C9.17555 8.84957 9.25171 8.87218 9.26302 8.89319C9.27433 8.91261 9.13833 8.9045 9.12702 8.92519C9.11902 8.94141 9.15902 9.03357 9.17886 9.0805C9.21358 9.06324 9.25167 9.05384 9.29043 9.05298C9.41502 9.04978 9.50569 9.13234 9.65449 9.13234C10.0137 9.13234 10.339 8.86855 10.5784 8.78759C10.7549 8.72775 10.907 8.68402 11.0137 8.58695C11.0655 8.54333 11.1577 8.44615 11.2419 8.30215C11.3033 8.20349 11.3633 8.11122 11.4232 8.04327L11.4229 8.04381Z" fill="#D2B257"/>
<path fill-rule="evenodd" clip-rule="evenodd" d="M6.27097 16.0518C6.27097 16.0518 6.23897 15.932 5.94243 15.623C5.85827 15.5356 5.80654 15.463 5.7499 15.411C5.6091 15.2782 5.52654 15.2427 5.42627 15.1667C5.20622 15.0033 4.96675 15.0033 4.78233 14.8026C4.5979 14.602 4.38297 14.2186 4.23363 13.8268C4.08643 13.4353 4.0459 13.3107 4.0459 13.2994C4.0459 13.2881 4.08643 13.212 4.13817 13.2233C4.1899 13.2346 4.1899 13.3349 4.20291 13.3592C4.22869 13.3989 4.25792 13.4362 4.29027 13.4708C4.36633 13.5582 4.4747 13.6628 4.52974 13.8187C4.51843 13.686 4.4731 13.5388 4.4731 13.5388C4.4731 13.5388 4.7579 13.7185 5.00057 13.9061C5.24494 14.0938 5.34521 14.1586 5.41657 14.2782C5.48793 14.3979 5.65603 14.7136 5.73657 14.8058C5.8171 14.8981 6.92057 15.2459 6.92057 15.2459L7.44547 15.6373L7.70606 16.2085L7.50211 16.5285L7.11054 16.6126L6.47459 16.3278L6.27097 16.0517V16.0518Z" fill="#D2B159"/>
<path fill-rule="evenodd" clip-rule="evenodd" d="M4.85828 14.0841C4.85828 14.0841 4.99097 14.2961 5.3146 14.4967C5.6059 14.6731 6.06702 14.8334 6.47812 14.9288C6.71428 14.9855 6.95054 15.0291 7.16249 15.0324C7.73369 15.0404 8.12686 14.8771 8.61401 14.8236C8.8778 14.7961 9.20142 14.7751 9.53796 14.6956C9.96996 14.5921 10.2256 14.4755 10.5736 14.3116C10.826 14.1952 11.0574 14.1078 11.245 13.9961C11.5088 13.8408 11.7014 13.6677 11.9247 13.616C11.8972 13.692 11.8681 13.8279 11.648 13.9687C11.7645 13.9654 11.9247 13.9574 11.9247 13.9574C11.9247 13.9574 11.7694 14.0496 11.4959 14.2567C11.3276 14.3847 11.1044 14.6014 10.8762 14.7454C10.7289 14.8376 10.5687 14.9054 10.4635 14.9606C10.2075 15.1014 10.1042 15.1726 9.93604 15.3446C9.99588 15.3414 10.0008 15.3446 10.0008 15.3446C10.0008 15.3446 9.78873 15.3721 9.63673 15.453C9.60473 15.453 9.54926 15.4417 9.4522 15.4692C9.37614 15.4934 9.27577 15.5486 9.1723 15.5776C9.025 15.6213 8.97657 15.6019 8.97657 15.6019L9.00078 15.6504C9.00078 15.6504 8.80878 15.6471 8.74478 15.6536C8.75609 15.6568 8.75289 15.6617 8.75289 15.6617C8.74165 15.6636 8.73082 15.6674 8.72089 15.673C8.69009 15.693 8.65622 15.7077 8.62062 15.7167C8.60121 15.7199 8.585 15.7199 8.56068 15.7248C8.56878 15.7442 8.63193 15.8528 8.66105 15.9168C8.63684 15.933 8.27268 16.2081 8.27268 16.2081C8.28397 16.2258 8.2932 16.2448 8.3002 16.2647C8.3115 16.3002 8.31641 16.3521 8.32772 16.3763C8.35513 16.4248 8.37134 16.4329 8.37134 16.4329C8.37134 16.4329 8.32772 16.441 8.25156 16.4604C8.18692 16.4767 8.10756 16.5041 7.99556 16.5203C7.96119 16.5248 7.92662 16.5275 7.89198 16.5284C7.9082 16.564 7.97934 16.6999 7.84825 16.8568C7.71716 17.0137 7.67673 17.0366 7.6363 17.1368C7.61595 17.1214 7.59429 17.1079 7.57156 17.0963C7.52793 17.0769 7.46798 17.0479 7.44697 17.0089C7.43472 17.0608 7.41849 17.1117 7.39844 17.161C7.35801 17.2694 7.29817 17.3763 7.28686 17.4571C7.24313 17.4086 7.16228 17.3131 7.0506 17.3326C6.93892 17.352 6.84996 17.5041 6.83054 17.5478C6.83054 17.5203 6.81113 17.4993 6.80633 17.5316C6.80302 17.5672 6.74158 17.9393 6.39854 18.2403C6.39534 18.1642 6.39534 17.9959 6.38724 17.941C6.35524 17.973 6.31609 18.0202 6.08302 18.1206C5.85486 18.2209 5.89102 18.3212 5.89102 18.3212C5.89102 18.3212 5.87161 18.1612 5.9946 17.9927C6.11918 17.8245 6.19524 17.7451 6.19524 17.7322C6.19323 17.7191 6.18761 17.7068 6.17902 17.6966C6.16281 17.6804 6.13049 17.661 6.13049 17.6481C6.1499 17.6401 6.34244 17.5478 6.33113 17.3568C6.31982 17.1854 6.24708 17.0963 6.19524 17.0332C6.18724 17.0251 6.2714 16.9653 6.25998 16.9459C6.25188 16.9346 6.14841 16.8584 6.1354 16.8179C6.13846 16.7937 6.14389 16.7699 6.15161 16.7467C6.16292 16.7111 6.17102 16.6868 6.16782 16.6626C6.15972 16.6222 6.11598 16.5105 6.10308 16.4992C6.11438 16.5024 6.19524 16.4992 6.19524 16.4992C6.19524 16.4992 6.1306 16.3956 6.11918 16.3471C6.10777 16.2985 6.08356 16.1706 6.07065 16.1464C6.09817 16.1496 6.16612 16.1544 6.16612 16.1464C6.16942 16.1221 6.10628 16.0817 6.13412 16.0504C6.15353 16.0536 6.19076 16.0698 6.22628 16.1152C6.20686 16.0633 6.17454 15.9631 6.10649 15.9226C6.13849 15.9113 6.24729 15.8821 6.34276 15.9387C6.43822 15.9954 6.47076 16.0746 6.47076 16.0746C6.47076 16.0746 6.5274 16.1184 6.61486 16.1831C6.71513 16.2624 6.84292 16.3751 7.04686 16.4549C7.0906 16.4792 7.20217 16.4792 7.28313 16.463C7.31838 16.4546 7.35218 16.441 7.3834 16.4226C7.39467 16.4159 7.40661 16.4105 7.41902 16.4064C7.40163 16.3715 7.38163 16.3379 7.35918 16.306C7.3867 16.306 7.41902 16.3093 7.41902 16.3093C7.41902 16.3093 7.43844 16.2656 7.35108 16.1813C7.37049 16.1619 7.39481 16.1493 7.39481 16.1166C7.36729 16.1134 7.31876 16.0729 7.30745 16.0567C7.32356 16.0454 7.34788 16.0082 7.3754 15.9969C7.35108 15.9775 7.29124 15.8965 7.26372 15.8885C7.29001 15.8787 7.31544 15.8668 7.33977 15.8529C7.33977 15.8529 7.20388 15.8172 7.16014 15.7881C7.11641 15.7561 7.05177 15.7008 7.01294 15.6846C6.97241 15.6683 6.90126 15.6603 6.87214 15.6279C6.89956 15.636 6.94329 15.6279 6.97572 15.6279C6.99993 15.6279 7.01134 15.6311 7.01934 15.6311C7.01614 15.6198 7.01614 15.5955 7.07929 15.5875C7.10966 15.5829 7.13914 15.5736 7.16665 15.56C7.16665 15.56 7.1067 15.5568 7.03865 15.492C6.9706 15.4273 6.91406 15.3755 6.87524 15.3674C6.83481 15.3593 6.75876 15.395 6.71182 15.3916C6.64708 15.3836 6.61956 15.3512 6.61956 15.3512C6.61956 15.3512 6.40441 15.3706 5.92708 15.0794C5.51438 14.827 5.33476 14.6037 5.33476 14.6037C5.29613 14.5897 5.2588 14.5723 5.22318 14.5519C5.06788 14.471 4.85262 14.3027 4.85913 14.0825L4.85828 14.0841Z" fill="#C2A44D"/>
<path fill-rule="evenodd" clip-rule="evenodd" d="M10.8109 4.37218C10.8483 4.38434 10.8816 4.40678 10.9069 4.43693C10.983 4.52429 11.0315 4.6893 10.8584 4.86573C10.9263 4.88994 10.9544 4.89773 11.0137 4.88994C10.9538 4.9612 10.8179 5.1133 10.8098 5.246C10.8017 5.35437 10.8697 5.3868 10.8697 5.3868C10.8697 5.3868 10.7661 5.50648 10.7613 5.7068C10.8102 5.65164 10.8637 5.60075 10.9213 5.55469C11.0411 5.45922 11.2061 5.35085 11.3178 5.2829C11.3163 5.31138 11.3201 5.33989 11.3291 5.36696C11.3291 5.36696 11.5377 5.19544 11.7131 5.2716C11.7923 5.30722 11.7567 5.4188 11.7567 5.4188C11.7567 5.4188 11.8652 5.37837 11.9412 5.45442C12.0173 5.53048 12.1248 5.72664 12.18 5.80269C12.2042 5.83832 12.2673 5.90626 12.332 6.01144C12.4203 6.15868 12.494 6.31419 12.5521 6.47576C12.5553 6.3916 12.5763 6.26061 12.8159 6.34306C13.0554 6.42722 13.3272 6.60365 13.5553 6.95106C13.7835 7.29848 13.84 7.69069 13.9549 7.84002C14.0714 7.98402 14.1912 8.22349 14.1993 8.32386C14.2074 8.42424 14.1636 8.74776 14.4031 9.62317C14.4711 9.35138 14.5746 8.74776 14.5746 8.74776L14.6313 8.21538L14.696 6.56813L12.9759 5.13912L11.6313 4.16333L10.7559 4.24749L10.8108 4.37208L10.8109 4.37218Z" fill="#CAA13E"/>
<path fill-rule="evenodd" clip-rule="evenodd" d="M14.0067 6.82356C14.0067 6.82356 13.9824 6.66356 13.5779 6.39156C13.1733 6.12297 12.8578 6.12297 12.5666 5.89481C12.3433 5.71519 12.1103 5.30249 11.9586 5.1666C11.8113 5.03231 11.7871 4.64393 11.7871 4.64393L12.2839 4.22793L13.0226 3.16009L13.6472 2.47241L13.9465 2.88841L14.3625 3.37705L14.5938 4.35764L14.678 5.79295L14.006 6.82367L14.0067 6.82356Z" fill="#B59544"/>
<path fill-rule="evenodd" clip-rule="evenodd" d="M14.507 8.54388C14.5192 8.32622 14.4923 8.10812 14.4276 7.89994C14.3209 7.5682 14.0879 6.97919 13.9796 6.7586C13.9359 6.51423 13.9683 6.49482 14.0152 6.4673C14.0622 6.43978 14.2386 6.3393 14.3352 5.98676C14.4319 5.63423 14.7317 5.62271 14.7317 5.62271L14.9161 5.48682L15.1961 6.1874L15.4404 6.82015L15.5165 7.30399L15.5731 7.71658L15.4404 8.58879L14.7852 9.181L14.5069 8.54388H14.507Z" fill="#C89D3A"/>
<path fill-rule="evenodd" clip-rule="evenodd" d="M5.36316 18.2654V18.2475C5.37678 18.239 5.3888 18.2281 5.39868 18.2155C5.40999 18.1992 5.4182 18.1798 5.4262 18.175C5.44241 18.1669 5.51847 18.143 5.55889 18.1507C5.59932 18.1584 5.7062 18.2024 5.76284 18.1992C5.87932 18.196 6.01521 18.107 6.23047 18.1475C6.55409 18.2074 6.63015 18.4274 6.81788 18.552C6.94588 18.6395 7.07836 18.6005 7.09777 18.6005H7.1414C7.14951 18.6005 7.20935 18.5326 7.24177 18.5359C7.30652 18.5391 7.31292 18.5925 7.35335 18.5957C7.44881 18.607 7.63335 18.5472 7.72561 18.5715C7.78114 18.5889 7.82465 18.6324 7.84209 18.6879C7.86151 18.7477 7.84529 18.8238 7.79836 18.8675C7.69809 18.9597 7.60263 19.0471 7.58321 19.1235C7.6079 19.1423 7.63162 19.1624 7.65425 19.1837C6.85363 18.9797 6.08333 18.6713 5.36316 18.2663V18.2654Z" fill="#CEB052"/>
<path fill-rule="evenodd" clip-rule="evenodd" d="M13.9795 15.0323C13.9795 15.0323 14.2319 14.6958 14.3193 14.5291C14.4067 14.3572 14.0426 12.1812 14.0426 12.1812L14.7741 9.78484L14.7545 9.00489C14.7545 9.00489 14.7902 8.28479 14.8743 7.97247C14.9747 8.15209 15.287 8.36895 15.355 8.48383C15.387 8.26367 15.4957 7.79935 15.4795 7.3042C15.5394 7.39636 15.6834 8.32361 15.6834 8.32361L15.8274 8.94815L16.0151 9.61161L16.2239 10.3123L16.3485 10.7961L16.4196 10.9126L16.4795 11.1165L16.5362 11.3366L16.6996 11.8528L16.7956 12.2767L16.8717 13.0453C16.8882 13.1042 16.9001 13.1642 16.9073 13.2249C16.9105 13.3091 16.896 13.3576 16.896 13.3723C16.896 13.3869 16.9235 13.5567 16.9122 13.6846C16.896 13.8126 16.896 13.9127 16.7956 14.0046C16.6952 14.0964 16.6322 14.6453 16.6322 14.6453L16.4526 14.5256C16.4526 14.5256 16.4882 14.3621 16.404 14.2133C16.3199 14.0645 16.1565 14.0337 16.0642 14.058C15.972 14.0774 15.7876 14.1064 15.7277 14.1583C15.671 14.21 15.5319 14.3702 15.404 14.4431C15.244 14.5391 14.9833 14.5467 14.8442 14.579C14.7034 14.611 14.5481 14.707 14.3846 14.8184C14.2564 14.9014 14.121 14.9728 13.9801 15.0318L13.9795 15.0323Z" fill="#CCA847"/>
<path fill-rule="evenodd" clip-rule="evenodd" d="M13.9795 18.5681C13.9795 18.5681 13.9902 18.575 14.0107 18.5863C15.1604 18.0477 16.1904 17.2842 17.0401 16.341C17.0308 16.0135 17.0187 15.6778 17.0055 15.5534C16.9781 15.2897 16.9975 15.0211 16.9894 14.8658C16.9813 14.7105 16.8939 14.0777 16.8535 13.9143C16.8098 13.7509 16.7255 13.6699 16.7127 13.6699C16.7014 13.6732 16.6334 13.9774 16.6334 14.0539C16.6334 14.1304 16.6171 14.3145 16.6171 14.3614C16.6058 14.3581 16.601 14.3294 16.601 14.3177C16.5848 14.3581 16.5654 14.4294 16.5573 14.4375C16.5492 14.4456 16.5686 14.3695 16.5573 14.3533C16.546 14.3371 16.5253 14.3452 16.5298 14.3048C16.5317 14.2808 16.5355 14.257 16.5411 14.2337C16.5411 14.2337 16.4926 14.3048 16.457 14.486C16.4214 14.6657 16.4214 14.6706 16.4085 14.6867C16.3972 14.7062 16.3325 14.7708 16.3291 14.7951C16.3259 14.8388 16.3891 14.8825 16.3939 14.9067C16.3971 14.9473 16.3373 15.1349 16.3178 15.2267C16.2984 15.3186 16.3065 15.4985 16.2858 15.5908C16.2696 15.6749 16.2538 15.7235 16.1985 15.759C16.2389 15.7671 16.2777 15.7784 16.2777 15.7784C16.2777 15.7784 16.3344 16.0179 16.1904 16.2218C16.1386 16.293 16.1257 16.3254 16.0707 16.3901C15.9622 16.5098 15.8781 16.6461 15.8699 16.7348C15.8643 16.7086 15.8606 16.6821 15.8586 16.6554C15.8586 16.6554 15.6904 16.8513 15.6192 16.9629C15.527 17.1069 15.3991 17.0988 15.3632 17.1345C15.3272 17.1701 15.3194 17.2347 15.3312 17.2866C15.2992 17.2946 15.239 17.306 15.1985 17.4306C15.1791 17.4952 15.1305 17.5586 15.0545 17.6021C14.9784 17.6456 14.8862 17.6587 14.8392 17.67C14.8797 17.6813 14.8959 17.6813 14.9153 17.6942C14.8911 17.7347 14.7794 17.7978 14.6548 17.8788C14.5302 17.9548 14.4703 18.0664 14.4395 18.1393C14.4075 18.2072 14.3603 18.2509 14.2842 18.259C14.3162 18.2785 14.3636 18.3237 14.3878 18.3383C14.3522 18.3464 14.2918 18.3464 14.184 18.4387C14.0707 18.5325 14.0319 18.5601 13.98 18.5682L13.9795 18.5681Z" fill="#C39D3C"/>
<path fill-rule="evenodd" clip-rule="evenodd" d="M11.7281 19.3178C11.79 19.2743 11.8571 19.2388 11.9279 19.2118C12.1802 19.1116 12.4472 19.0922 12.5524 19.0598C12.6528 19.0278 12.732 18.9837 12.8566 18.9595C12.8533 18.9878 12.8505 19.0145 12.8475 19.0397C12.4802 19.1552 12.1062 19.248 11.7275 19.3178H11.7281Z" fill="#D2BA6B"/>
<path fill-rule="evenodd" clip-rule="evenodd" d="M16.3827 12.6797C16.3827 12.6797 16.331 12.9596 16.2387 13.136C16.1465 13.3124 16.0467 13.5567 16.0467 13.5567C16.0474 13.5016 16.0539 13.4468 16.0662 13.3932C15.9497 13.4611 15.6665 13.6246 15.5862 13.6974C15.5101 13.7653 15.3822 13.8851 15.3499 13.9418C15.4259 13.7185 15.5052 13.5179 15.5182 13.4256C15.4017 13.5098 14.8579 13.958 14.5749 14.2541L13.6929 14.9677C13.5912 15.0226 13.4864 15.0717 13.379 15.1147C13.227 15.1793 13.0474 15.2343 12.9147 15.2862C12.9503 15.1907 13.0069 15.1064 13.0862 15.0256C13.1704 14.9463 13.4227 14.6728 13.4616 14.5456C13.4972 14.4129 13.5053 14.3336 13.4584 14.222C13.4146 14.2333 13.3144 14.2382 13.2464 14.2576C13.1785 14.277 13.1056 14.3498 13.1056 14.3498C13.1056 14.3498 13.1574 14.0536 13.269 13.7738C13.1849 13.777 13.0409 13.8012 13.0409 13.8012C13.0409 13.8012 13.2415 13.4646 13.5849 13.2301C13.4797 13.2525 13.3768 13.2844 13.2775 13.3254C13.0768 13.4096 12.8568 13.5342 12.6934 13.6021C12.7855 13.4741 13.4328 12.5504 13.8179 11.6895C14.2019 10.8303 14.3454 10.6102 14.4296 10.1491C14.4732 9.92095 14.4616 9.58378 14.4732 9.28181C14.4845 8.98239 14.5217 8.71381 14.4975 8.53418C14.5978 8.65877 14.9733 9.00991 14.9862 9.79477C14.9975 10.5795 14.627 11.6395 14.2337 12.2106C14.3297 12.2381 14.5785 12.2705 14.8341 11.8266C15.0896 11.3826 15.0865 11.2587 15.1788 11.0741C15.1901 11.1664 15.1868 11.1987 15.1868 11.1987C15.1868 11.1987 15.5591 10.7473 15.7354 10.1793C15.771 10.4237 15.8762 10.6389 15.7111 11.0871C15.5639 11.4916 15.3713 11.5904 15.3713 11.5904C15.3713 11.5904 15.4668 11.5742 15.6075 11.49C15.6318 11.5499 15.627 11.618 15.6674 11.6421C15.7079 11.6662 15.7629 11.7069 15.771 11.7457C15.8146 11.681 15.8826 11.5984 15.9037 11.537C15.8875 11.665 15.8762 12.2246 15.9357 12.5094C16.0604 12.4981 16.1882 12.49 16.2755 12.2651C16.2157 12.4852 16.2157 12.6178 16.2561 12.8055C16.3225 12.7603 16.3823 12.6794 16.3823 12.6794L16.3827 12.6797Z" fill="#C0993A"/>
<path fill-rule="evenodd" clip-rule="evenodd" d="M12.1781 3.76062C12.1781 3.76062 12.0535 3.81236 11.8416 3.81236C11.6571 3.81236 11.7089 3.74121 11.4209 3.74121C10.9776 3.74121 9.42897 3.99721 9.15707 3.99358C8.98065 3.99038 9.75249 4.06964 9.75249 4.06964L11.7251 4.09716L12.1214 4.06516L12.2688 3.76542L12.1781 3.76062Z" fill="#A88F33"/>
<path fill-rule="evenodd" clip-rule="evenodd" d="M7.06385 7.61652C7.06385 7.61652 6.81137 7.80905 6.7046 7.95636C6.59783 8.10367 6.54119 8.20063 6.4198 8.32041C6.44829 8.3215 6.47676 8.31768 6.50396 8.30911C6.50396 8.30911 6.50396 8.34111 6.48455 8.34953C6.51852 8.34573 6.5524 8.35749 6.57671 8.38153C6.54108 8.40095 6.44401 8.49812 6.52007 8.613C6.57671 8.70036 6.69649 8.70836 6.69649 8.70836C6.69649 8.70836 6.66897 8.78772 6.78385 8.77961C7.03143 8.76831 7.30812 8.65983 7.43591 8.68735C7.56391 8.71935 7.63665 8.73108 7.72721 8.88809C7.82321 9.0434 7.90684 9.06772 7.90684 9.06772C7.90684 9.06772 7.96348 8.92361 7.95057 8.70847C7.99701 8.5925 8.02275 8.46928 8.02663 8.34441L7.94247 7.72468L7.57521 7.26025L7.09948 7.52404L7.06385 7.6162V7.61652Z" fill="#E3C571"/>
<path fill-rule="evenodd" clip-rule="evenodd" d="M7.51563 7.52416C7.51563 7.52416 7.55125 7.60832 7.70016 7.61632C7.68395 7.65195 7.68395 7.65686 7.68885 7.68427C7.69205 7.71179 7.69685 7.75222 7.69685 7.75222C7.71325 7.74428 7.72806 7.73344 7.74058 7.72022C7.74869 7.75584 7.73248 7.81238 7.74058 7.85291C7.74559 7.87756 7.75372 7.90147 7.7648 7.92406C7.76716 7.91852 7.76987 7.91314 7.7729 7.90795C7.7761 7.89984 7.8049 7.99531 7.88458 8.06795C7.88452 8.05678 7.88727 8.04577 7.89258 8.03595C7.89381 8.05624 7.90052 8.07582 7.912 8.09259C7.90604 8.08975 7.90059 8.08593 7.89589 8.08128C7.89589 8.08128 7.90389 8.33728 7.94762 8.46966C7.95493 8.4611 7.96143 8.45189 7.96704 8.44214C7.96704 8.43414 7.96384 8.51339 7.95573 8.57014C7.94442 8.62678 7.95253 8.70603 7.95253 8.70603C7.98171 8.68306 8.01377 8.66402 8.04789 8.64939C8.09642 8.62987 8.17589 8.57003 8.22432 8.43734C8.25241 8.36219 8.27407 8.28479 8.28906 8.20598C8.30471 8.2361 8.31551 8.26849 8.32107 8.30198C8.32437 8.3424 8.40042 8.32139 8.40042 8.32139L8.41664 8.14496L8.51264 7.74528L8.6 7.49771L9.02069 6.84246L9.7808 6.25707L10.4443 6.40918L11.0041 5.64864L10.0397 5.06934L9.12704 5.1648L8.29877 6.312L7.63541 7.35254L7.51562 7.52406L7.51563 7.52416Z" fill="#D8B65B"/>
<path fill-rule="evenodd" clip-rule="evenodd" d="M12.2952 5.86415C12.2952 5.86415 12.2385 5.87546 12.0751 5.96015C11.9117 6.04485 11.7984 6.07173 11.7353 6.19631C11.6721 6.3209 11.6673 6.41967 11.6673 6.41967C11.6673 6.41967 11.779 6.37114 11.8437 6.35493C11.9117 6.33882 11.9877 6.34362 11.9796 6.37114C11.9719 6.39001 11.961 6.40749 11.9476 6.42287C11.9476 6.42287 12.0756 6.41967 12.0722 6.48282C12.0688 6.54597 12.048 6.61551 12.0238 6.64623C11.9995 6.67823 11.8992 6.72559 11.8879 6.76282C11.8604 6.83887 11.8992 6.84207 11.8846 6.90351C11.8733 6.96346 11.82 7.07994 11.6451 7.28378C11.4655 7.48773 11.3891 7.63173 11.3891 7.63173C11.3891 7.63173 11.3018 7.46831 11.2564 7.32751C11.2244 7.34362 11.0526 7.43909 11.0526 7.43909L10.6545 6.05242L10.6625 5.96015C10.6625 5.96015 10.6981 5.91653 10.7062 5.83557C10.6464 5.81615 10.6383 5.79994 10.5589 5.72399C10.4796 5.64805 10.4149 5.55567 10.2824 5.49253C10.2629 5.4569 10.2386 5.40847 10.1416 5.38895C10.0445 5.36943 9.98625 5.35343 9.98625 5.35343C9.98625 5.35343 10.038 5.33391 10.0623 5.29349C10.0024 5.30159 9.95393 5.32101 9.82283 5.31781C9.69014 5.3145 9.67553 5.3097 9.60278 5.32101C9.53003 5.33231 9.44278 5.36474 9.41025 5.25306C9.37462 5.22554 9.29857 5.24986 9.23382 5.34522C9.16907 5.44058 9.14646 5.51674 9.02187 5.55397C9.01311 5.60889 8.99388 5.66161 8.96523 5.70927C8.92961 5.76922 8.87297 5.82906 8.79691 5.91802C8.67713 6.05882 8.69654 6.29018 8.50561 6.46661C8.31307 6.64293 8.53761 5.97786 8.53761 5.97786L8.84502 5.24186L9.72043 4.38586L11.0797 4.2937L11.2124 4.9977L11.8758 5.22586L12.2949 5.86501L12.2952 5.86415Z" fill="#D3AE4D"/>
<path fill-rule="evenodd" clip-rule="evenodd" d="M12.5107 6.01934L11.9395 5.19577L11.5399 4.88825C11.5399 4.88825 11.2551 4.36409 11.2356 4.34788C11.2194 4.33657 10.9508 4.30745 10.7793 4.29614L10.8113 4.3754C10.8488 4.38756 10.882 4.40999 10.9073 4.44014C10.9834 4.5275 11.0319 4.69252 10.8588 4.86894C10.9267 4.89316 10.9548 4.90094 11.0141 4.89316C10.9543 4.96441 10.8184 5.11652 10.8103 5.24921C10.8021 5.35758 10.8701 5.3899 10.8701 5.3899C10.8701 5.3899 10.7665 5.50969 10.7617 5.7099C10.8106 5.65474 10.8642 5.60386 10.9217 5.5578C11.0415 5.4618 11.2065 5.35385 11.3182 5.2859C11.3167 5.31442 11.3205 5.34296 11.3295 5.37006C11.3295 5.37006 11.5381 5.19854 11.7135 5.2746C11.7928 5.31022 11.7571 5.4219 11.7571 5.4219C11.7571 5.4219 11.8656 5.38148 11.9417 5.45753C12.0177 5.53358 12.1261 5.72932 12.1811 5.80548C12.2053 5.8411 12.2685 5.90905 12.3331 6.01412C12.4215 6.16139 12.4952 6.31694 12.5533 6.47854C12.5565 6.4138 12.5695 6.32324 12.6813 6.32324L12.5114 6.01902L12.5107 6.01934Z" fill="#CAA13E"/>
<path fill-rule="evenodd" clip-rule="evenodd" d="M3.94765 8.35928C3.94765 8.35928 3.90723 8.25891 3.94765 8.06317C3.98808 7.86744 4.05123 7.77517 4.07224 7.48717C4.09325 7.19917 4.28099 6.83992 4.28099 6.83992L4.80035 6.60376L5.16771 6.70403L5.27608 7.19597L4.81165 7.45197C4.81165 7.45197 4.78744 7.56035 4.65635 7.64771C4.52525 7.73507 4.34403 7.80301 4.3004 7.89208C4.27432 7.94662 4.25529 8.00425 4.24376 8.0636C4.24376 8.0636 4.11107 8.03608 4.03181 8.12344C3.94765 8.21251 3.95085 8.29176 3.94765 8.35971V8.35928Z" fill="#F4EFC8"/>
<path fill-rule="evenodd" clip-rule="evenodd" d="M4.99611 8.22814C4.99611 8.22814 4.95238 8.25566 4.92006 8.32414C4.88806 8.2724 4.81158 7.96488 4.80838 7.68819C4.80518 7.4115 4.78865 7.34291 4.85265 7.24755C4.91665 7.15219 5.16763 7.05171 5.13201 6.87998C5.09638 6.71656 4.94747 6.64862 4.76465 6.69555C4.63665 6.72755 4.54139 6.99976 4.4087 7.13566C4.30833 7.23923 4.18865 7.22302 4.15633 7.27966C4.11259 7.35571 4.15302 7.43176 4.14011 7.4803C4.13681 7.49651 4.09638 7.58387 4.02353 7.68904C3.87633 7.90099 3.62715 8.2004 3.59473 8.46899C3.60603 8.31688 3.59803 8.31368 3.63846 8.14536L3.61414 8.10494L3.77414 7.58067L3.87771 7.14867L4.10918 6.42526L4.51686 5.68584L4.91334 5.24243L5.32593 5.26995L5.37446 5.88968L5.61073 7.0532L6.10747 7.66483L5.31131 8.20062L4.99579 8.22814H4.99611Z" fill="#EBCC73"/>
<path fill-rule="evenodd" clip-rule="evenodd" d="M5.24343 8.44803C5.24343 8.44803 5.17548 8.46424 5.15116 8.45134C5.12684 8.43843 5.10273 8.42382 5.11073 8.4076C5.11873 8.39139 5.16247 8.36398 5.16247 8.35096C5.16433 8.32652 5.14642 8.30501 5.12204 8.30243C5.08481 8.29763 5.07351 8.32184 5.07351 8.32184C5.07351 8.32184 5.03788 8.29443 5.00887 8.28984C5.02603 8.28774 5.04331 8.28664 5.0606 8.28654C5.01588 8.26628 4.96845 8.25266 4.9198 8.24611C4.96023 8.2219 5.03959 8.15064 5.09132 8.15064C5.14305 8.15064 5.17548 8.14264 5.16737 8.11512C5.15927 8.0876 5.11884 8.04718 5.07521 8.03096C5.09132 8.01155 5.10273 7.98243 5.06391 7.90296C5.02337 7.82371 5.03959 7.77027 5.0526 7.75096C5.06391 7.72664 5.10433 7.68302 5.12375 7.6555C5.14316 7.62798 5.15937 7.59075 5.19169 7.57134C5.20791 7.56003 5.25964 7.53934 5.31148 7.5196C5.36812 7.50019 5.41505 7.47587 5.44737 7.50019C5.483 7.5244 5.46679 7.55683 5.46679 7.55683C5.46679 7.55683 5.57847 7.5163 5.67873 7.56814C5.77911 7.61656 6.02348 7.64739 6.02348 7.64739L6.11105 7.82382L5.53175 8.32056L5.29228 8.44035L5.24375 8.44835L5.24343 8.44803Z" fill="#E5C66B"/>
<path fill-rule="evenodd" clip-rule="evenodd" d="M6.04741 7.63593C6.04741 7.63593 5.86778 7.75571 5.82735 7.79934C5.85157 7.80265 5.89199 7.81886 5.87578 7.84307C5.85637 7.86729 5.73989 7.95145 5.67514 8.03081C5.60719 8.11006 5.54245 8.21043 5.51983 8.25897C5.49562 8.30259 5.31109 8.43049 5.24805 8.44659C5.38074 8.44659 5.64773 8.28318 5.74799 8.28318C5.74479 8.33171 5.77551 8.38675 5.83215 8.39155C5.88879 8.39635 6.05221 8.42718 6.27226 8.29129C6.49231 8.15859 6.41957 8.05982 6.51173 7.99518C6.68815 7.87859 6.7593 7.77502 6.85637 7.71038C6.95343 7.64574 7.00367 7.63102 7.00367 7.63102C7.00367 7.63102 7.00687 7.58249 7.03567 7.58739C7.05174 7.58923 7.06546 7.59983 7.0713 7.61491C7.0713 7.61491 7.23962 7.49513 7.4553 7.46281C7.45027 7.46056 7.44624 7.45653 7.44399 7.4515C7.44399 7.4515 7.4601 7.44339 7.46341 7.43529C7.46341 7.43529 7.47471 7.41907 7.48282 7.42718C7.49093 7.43529 7.50223 7.49513 7.51845 7.51945C7.55407 7.50323 7.62202 7.35113 7.62202 7.35113L7.78554 6.8835V6.4563L7.65754 6.48062L6.69754 6.8883L6.11493 7.49193L6.04698 7.63593H6.04741Z" fill="#E6BD62"/>
<path fill-rule="evenodd" clip-rule="evenodd" d="M8.81168 5.54051C8.86361 5.52791 8.91339 5.50771 8.95942 5.48056C8.94 5.5324 8.94 5.58904 8.85584 5.71203C8.77168 5.83502 8.76848 5.85283 8.70054 5.98062C8.63259 6.11331 8.62448 6.30424 8.55974 6.3883C8.58876 6.3742 8.61989 6.36494 8.6519 6.36088C8.6519 6.36088 8.58726 6.41752 8.55974 6.47736C8.53222 6.5372 8.48368 6.66179 8.364 6.73795C8.24432 6.81411 8.09211 6.86254 7.9287 7.04216C7.76518 7.21848 7.59696 7.44184 7.5127 7.52216C7.55643 7.44611 7.61627 7.294 7.63248 7.19374C7.6487 7.09347 7.62918 6.97358 7.6567 6.84099C7.68422 6.7084 7.68422 6.61283 7.8167 6.38136C7.94918 6.1499 8.17595 5.34574 8.17595 5.34574L8.66459 5.19043L8.8119 5.53998L8.81168 5.54051Z" fill="#B6933F"/>
<path fill-rule="evenodd" clip-rule="evenodd" d="M8.45843 5.24434C8.45843 5.24434 8.31123 5.45628 8.2708 5.64402C8.23038 5.83175 8.2675 5.81554 8.24328 5.9078C8.2288 5.96406 8.2288 6.02307 8.24328 6.07932C8.29426 5.9972 8.36406 5.92838 8.44691 5.87858C8.58611 5.79452 8.69939 5.73458 8.76691 5.66343C8.83486 5.58738 8.8915 5.46279 9.0387 5.36732C8.97886 5.35922 8.8947 5.3317 8.8787 5.33532C8.93864 5.26738 9.11816 5.1638 9.29939 5.03922C9.47902 4.91122 9.46771 4.85959 9.75902 4.7318C9.66355 4.74802 9.61822 4.7237 9.53886 4.7318C9.57086 4.66386 9.68286 4.63143 9.79486 4.51986C9.90686 4.40828 9.72371 4.24316 9.72371 4.24316L8.87038 4.75932L8.45779 5.24476L8.45843 5.24434Z" fill="#C49937"/>
<path fill-rule="evenodd" clip-rule="evenodd" d="M6.14258 4.85929L6.16199 4.70398L6.40636 4.31241L6.66204 3.62473V2.68457L6.64263 2.14089L6.68306 1.78484L6.71378 1.67166L6.7462 1.62793L6.95484 1.7363L7.24295 2.12788L7.27047 2.88361L6.99047 4.07614L6.19111 4.94836L6.14258 4.85929Z" fill="#DFC068"/>
<path fill-rule="evenodd" clip-rule="evenodd" d="M6.779 1.58409C6.779 1.58409 6.651 1.5874 6.62369 2.11977C6.59638 2.65214 6.58316 2.93204 6.56374 3.19582C6.54433 3.45961 6.4991 3.61972 6.47638 3.77513C6.45366 3.93054 6.44076 4.14238 6.36801 4.27188C6.33601 4.33172 6.26764 4.51945 6.10742 4.66025C5.9278 4.81556 5.65942 4.92404 5.61878 4.93214C5.54753 4.94825 5.18668 4.98388 5.03948 5.06484C4.98774 5.09236 4.89868 5.12468 4.80001 5.21694C4.60417 5.39326 4.34369 5.70878 4.15596 6.08905C3.86796 6.65705 3.57996 8.26057 3.57996 8.26057L3.6447 8.1522C3.6447 8.1522 3.65281 8.0082 3.79681 7.75572C3.93761 7.50334 3.89718 7.22014 4.09292 6.7363C4.16897 6.55188 4.26444 6.31241 4.38092 6.10846C4.56545 5.77673 4.7887 5.49193 5.01366 5.33662C5.38092 5.08425 5.7855 5.02921 5.7855 5.02921L6.22081 4.74121C6.22081 4.74121 6.29686 4.59401 6.39724 4.42569C6.53793 4.18953 6.71724 3.92574 6.75638 3.54228C6.81633 2.97428 6.67222 2.60212 6.68033 2.26558C6.68844 1.92905 6.69164 1.68148 6.75969 1.62153C6.82774 1.56158 6.7791 1.5843 6.7791 1.5843L6.779 1.58409Z" fill="#A88F33"/>
<path fill-rule="evenodd" clip-rule="evenodd" d="M6.77853 4.12463C6.77853 4.12463 6.97053 3.65209 7.05843 3.233C7.07464 3.14884 7.10696 3.06479 7.11507 2.99684C7.15549 2.60036 7.1668 2.43695 7.11507 2.22009C7.07464 2.06009 6.91933 1.91588 6.83837 1.80409C6.75912 1.68751 6.72189 1.64409 6.73811 1.61956C6.75432 1.59503 6.81736 1.55492 6.8788 1.55972C7.01078 1.56356 7.13541 1.6214 7.22355 1.71972C7.34813 1.86372 7.4468 2.35247 7.4468 2.35247L7.55059 2.99737L7.81437 3.80964L6.77875 4.12527L6.77853 4.12463Z" fill="#C99E3D"/>
<path fill-rule="evenodd" clip-rule="evenodd" d="M8.58261 3.63268C8.58261 3.63268 8.54699 3.64878 8.48235 3.63268C8.48797 3.68653 8.46297 3.739 8.4176 3.76857C8.34965 3.74105 7.7136 3.79609 7.7136 3.79609C7.7136 3.79609 7.41749 3.74425 7.32523 3.35267C7.26059 3.09209 7.37376 2.73294 7.33653 2.49668C7.27989 2.14873 7.20064 2.08068 7.19253 1.97241C7.18443 1.86414 7.17632 1.83652 7.17632 1.76857C7.14069 1.76046 7.11968 1.74916 7.08416 1.74916C7.07605 1.71716 7.09216 1.68921 7.05664 1.63257C7.07605 1.64068 7.20875 1.65689 7.36405 1.80409C7.49205 1.92388 7.49205 1.9675 7.51136 1.99182C7.53557 2.01604 7.73141 2.18382 7.81557 2.35108C7.89973 2.51833 8.06315 3.05166 8.10037 3.13902C8.11168 3.17465 8.136 3.21028 8.19637 3.29113C8.29024 3.40772 8.42773 3.60046 8.58304 3.63246L8.58261 3.63268Z" fill="#B58634"/>
<path fill-rule="evenodd" clip-rule="evenodd" d="M7.53516 2C7.63318 2.15835 7.72124 2.32265 7.79884 2.49195C7.8943 2.70709 7.95094 2.88352 8.07073 3.02752C8.00598 2.83989 7.8911 2.47093 7.82316 2.33984C7.7471 2.20117 7.5918 2.05184 7.53516 2.00011V2Z" fill="#A88F33"/>
<path fill-rule="evenodd" clip-rule="evenodd" d="M6.43471 4.66026C6.43471 4.66026 6.2713 4.70069 5.96709 4.8609C5.86671 4.91264 5.77135 4.95626 5.67909 4.9968C5.43941 5.10517 5.18234 5.20533 4.97839 5.26058C4.99461 5.28 5.00261 5.288 5.00261 5.288C5.00261 5.288 5.00261 5.36736 5.04634 5.41258C5.02213 5.4369 4.69839 5.65696 4.79397 6.39317C4.85861 6.36896 4.93466 6.33653 4.94597 6.33653C4.96549 6.33984 4.97029 6.39317 4.9945 6.39317C5.01871 6.39317 5.09807 6.36117 5.18223 6.25237C5.17903 6.2961 5.1305 6.73621 5.39098 7.03232C5.43951 6.97568 5.5625 6.78794 5.5625 6.78794L5.5657 6.7281C5.5657 6.7281 5.57701 6.51936 5.64506 6.32842C5.71311 6.13749 5.8457 5.99669 5.8457 5.99669L6.53807 5.008L6.4345 4.66016L6.43471 4.66026Z" fill="#E6C367"/>
<path fill-rule="evenodd" clip-rule="evenodd" d="M5.78706 6.11212C5.75536 6.13452 5.72043 6.15196 5.68349 6.16385C5.67218 6.12342 5.65597 5.98422 5.75143 5.84833C5.86311 5.68481 6.10738 5.47286 6.17533 5.30433C6.21906 5.19585 6.19965 4.92406 6.58802 4.57612C6.97639 4.22817 7.12839 4.10849 7.12839 4.10849L7.75623 3.79297L8.52807 4.09718L8.14461 5.60012L7.8469 6.30412L6.6629 6.08086L5.78695 6.11212H5.78706Z" fill="#DCBA5A"/>
<path fill-rule="evenodd" clip-rule="evenodd" d="M6.23914 5.70394L6.38644 5.51951V5.38842C6.38644 5.38842 6.54986 5.34469 6.72618 5.16506C6.9025 4.98543 7.14687 4.64079 7.36212 4.66181C7.57738 4.68613 7.59839 5.12943 7.6065 5.25413C7.6146 5.37882 7.64212 5.66181 7.68575 5.81402C7.73428 5.96613 7.16148 6.54213 7.16148 6.54213L6.77247 6.83823L6.23914 5.70394Z" fill="#E9CE77"/>
<path fill-rule="evenodd" clip-rule="evenodd" d="M6.69531 7.23951C6.69531 7.23951 6.8151 7.05177 6.72731 7.01135C6.77905 6.89487 6.87451 6.77188 6.87451 6.77188C6.87451 6.77188 6.94246 6.60367 7.16251 6.39652C7.38257 6.18937 7.51857 6.05177 7.55419 5.91268C7.57616 5.82203 7.5881 5.72924 7.58982 5.63599C7.61361 5.65542 7.63906 5.67273 7.66587 5.68772C7.7015 5.70393 7.86971 5.84303 7.8455 6.12303C7.82129 6.40303 7.7175 6.51951 7.7175 6.51951C7.7175 6.51951 7.61723 6.61977 7.54609 6.67161C7.46993 6.72335 7.44251 6.78319 7.31462 6.78809C7.32776 6.77764 7.34254 6.76943 7.35835 6.76377C7.35835 6.76377 7.22566 6.74767 7.15441 6.81231C7.08315 6.87695 6.93169 7.07609 6.85563 7.13604C6.77958 7.18457 6.69563 7.23961 6.69563 7.23961L6.69531 7.23951Z" fill="#CDAE50"/>
<path fill-rule="evenodd" clip-rule="evenodd" d="M12.0755 4.09208C11.8844 4.0224 11.6834 3.9831 11.4801 3.9756C11.1403 3.96429 10.6435 3.9837 10.1565 3.9869C9.63222 3.9901 9.15649 3.80728 8.49633 3.77496C8.38795 3.71021 8.11233 3.42701 7.25195 4.02733C7.30369 4.02413 7.87659 3.89464 8.07553 4.14392C8.27617 4.39149 8.21953 4.81218 8.19211 4.91245C8.14027 5.13581 7.97195 5.46104 7.90411 5.6892C7.83627 5.91736 7.85227 6.03725 7.80374 6.19725C7.75521 6.35725 7.64843 6.43672 7.71147 6.62114C7.79563 6.56941 7.83947 6.56941 7.98006 6.25389C8.12065 5.93837 8.09174 5.71341 8.32481 5.44642C8.55297 5.17784 8.93281 4.81048 9.07723 4.71821C9.22166 4.62594 10.3684 4.03053 11.5692 4.59853C11.8588 4.56781 12.0756 4.09197 12.0756 4.09197L12.0755 4.09208Z" fill="#D2A83E"/>
<path fill-rule="evenodd" clip-rule="evenodd" d="M7.73483 3.87202C7.73364 3.85986 7.73095 3.84789 7.72683 3.83639C7.7156 3.81273 7.70085 3.7909 7.68309 3.77165C7.68309 3.77165 7.39829 3.71991 7.25429 3.73602C7.00181 3.76354 6.77365 4.07586 6.66688 4.23607C6.56011 4.39629 6.42741 4.64375 6.28341 4.77165C6.28499 4.75919 6.28212 4.74657 6.27531 4.73602C6.27531 4.73602 6.28341 4.74733 6.26731 4.76354C6.2512 4.77975 6.25109 4.78775 6.2592 4.79554L6.28352 4.81975C6.29152 4.81975 6.51488 4.71938 6.81909 4.43575C7.14272 4.13965 7.39029 3.98775 7.51979 3.9357C7.58884 3.90635 7.66103 3.88499 7.73493 3.87202H7.73483Z" fill="#C29637"/>
<path fill-rule="evenodd" clip-rule="evenodd" d="M13.26 2.65527C13.26 2.65527 13.2081 2.71991 13.1434 2.79117C12.9994 2.94327 12.8116 3.11469 12.6514 3.29111C12.4994 3.45943 12.3279 3.59053 12.1353 3.81058C11.9426 4.03063 11.7193 4.2749 11.6627 4.34615C11.611 4.41741 11.5706 4.53389 11.5706 4.59373C11.5431 4.57431 11.5107 4.5533 11.5107 4.5533C11.5243 4.5787 11.5406 4.60259 11.5593 4.62455C11.5997 4.68119 11.6627 4.75255 11.6952 4.79607C11.735 4.85148 11.7635 4.91413 11.7792 4.9805C11.7986 4.9837 11.9232 5.00802 12.0786 4.75234C12.234 4.49666 12.4378 4.21677 12.4378 4.21677L12.7614 3.73613L12.9654 3.32845L13.2214 2.87213L13.2603 2.65527H13.26Z" fill="#AC8132"/>
<path fill-rule="evenodd" clip-rule="evenodd" d="M13.5914 2.32861C13.5914 2.32861 13.3955 2.48861 13.3195 2.58461C13.2434 2.68061 13.0635 2.93256 13.0635 2.93256L13.1282 2.92445L13.4568 2.63325L13.5848 2.40509L13.5913 2.32904L13.5914 2.32861Z" fill="#A88F33"/>
<path fill-rule="evenodd" clip-rule="evenodd" d="M13.5311 15.1879C13.5311 15.1879 13.5279 15.0552 13.6024 14.9759C13.6784 14.8966 13.871 14.7801 14.0587 14.3432C14.2464 13.9063 14.2673 13.8076 14.2673 13.8076C14.2673 13.8076 13.9308 14.0956 13.7233 14.1635C13.7719 14.0632 13.7994 13.992 13.8237 13.9402C13.7962 13.916 13.6797 13.8884 13.6684 13.8755C13.733 13.8108 13.7687 13.6522 13.8998 13.547C14.0681 13.419 14.3755 13.1991 14.6144 13.003C14.8534 12.807 15.3231 12.351 15.3831 12.2183C15.4187 12.27 15.4267 12.3023 15.4267 12.3023C15.4267 12.3023 15.1905 12.6098 15.0676 12.8056C14.9591 12.9739 14.9672 13.0694 14.9672 13.0694L15.1905 12.9734C15.1905 12.9734 15.2552 13.2128 14.9624 13.577C15.0904 13.5284 15.142 13.5576 15.2148 13.517C15.095 13.5932 14.93 13.6968 14.7746 13.9815C14.6225 14.2663 14.4154 14.598 14.066 14.805C13.7261 15.0235 13.5303 15.1869 13.5303 15.1869L13.5311 15.1879Z" fill="#A67A2E"/>
<path fill-rule="evenodd" clip-rule="evenodd" d="M12.6543 4.26055C12.6543 4.26055 12.5216 4.53714 12.5022 4.75239C12.499 4.80423 12.486 4.84466 12.486 4.9045C12.4828 5.09703 12.4973 5.31228 12.454 5.41255C12.4378 5.37212 12.4297 5.3446 12.4135 5.3285C12.3893 5.39644 12.3455 5.60839 12.3099 5.68764C12.2938 5.63591 12.2582 5.45628 12.2615 5.24434C12.2648 5.03239 12.2695 4.99186 12.2695 4.94823C12.2615 5.01287 12.2178 5.10034 12.2015 5.15207C12.1773 5.10844 12.1498 5.0518 12.1174 5.00487C12.098 5.03687 12.0738 5.08412 12.0527 5.10844C12.0494 5.08903 12.0414 5.03719 12.0365 4.96444C12.0333 4.88028 12.0284 4.77191 12.0333 4.74919C12.0413 4.70556 12.1094 4.53404 12.2534 4.37703C12.4249 4.1893 12.6013 3.82855 12.6531 3.71687C12.7048 3.60519 12.9248 3.14087 12.9248 3.14087H13.0932L12.8488 3.69746C12.8488 3.69746 12.7016 4.00167 12.6255 4.11346C12.5495 4.22524 12.3893 4.54556 12.318 4.67015C12.3698 4.6022 12.4135 4.56658 12.4653 4.50183C12.5155 4.4565 12.6546 4.26076 12.6546 4.26076L12.6543 4.26055Z" fill="#8C6228"/>
<path fill-rule="evenodd" clip-rule="evenodd" d="M13.5948 2.30737C13.5674 2.39199 13.5239 2.47057 13.4668 2.53884C13.3665 2.65863 13.1512 2.81873 13.0462 2.94652C12.9502 3.07111 12.7582 3.41095 12.8454 3.81383C12.8774 3.72647 12.9377 3.55335 13.0979 3.35751C13.2581 3.16167 13.4296 2.93681 13.5139 2.76209C13.5979 2.58567 13.6092 2.44657 13.6092 2.44657L13.6412 2.40615L13.6218 2.31388L13.5943 2.30737L13.5948 2.30737Z" fill="#CBA94C"/>
<path fill-rule="evenodd" clip-rule="evenodd" d="M16.871 13.0403C16.871 13.0403 16.8063 12.864 16.7869 12.7038C16.7675 12.5436 16.8189 12.5118 16.7593 12.3284C16.7237 12.2168 16.6591 12.2324 16.6429 12.2168C16.6267 12.2011 16.6153 12.0323 16.6185 11.9401C16.6217 11.8478 16.6153 11.7281 16.5991 11.6763C16.5749 11.6569 16.5587 11.6407 16.5231 11.521C16.4827 11.4012 16.4632 11.3414 16.4438 11.3058C16.4244 11.2703 16.3677 11.2379 16.3677 11.2023C16.3677 11.131 16.4324 11.0939 16.4324 11.0743C16.4292 11.0338 16.3807 11.0663 16.3677 11.0548C16.3516 11.0354 16.4082 10.919 16.3872 10.9027C16.3791 10.8947 16.3224 10.9627 16.3078 10.9433C16.2916 10.9238 16.2722 10.7312 16.2431 10.6034C16.2157 10.4788 16.1864 10.3883 16.1832 10.3511C16.18 10.3154 15.9599 9.68759 15.9065 9.53549C15.8636 9.40696 15.8274 9.27625 15.7982 9.14391C15.782 9.06786 15.7707 8.91245 15.7625 8.92866C15.7544 8.94487 15.7593 9.02413 15.7463 9.02093C15.735 9.01762 15.6946 8.74103 15.6817 8.6973C15.6704 8.65357 15.6023 8.5053 15.5857 8.39799C15.5695 8.28951 15.534 8.00631 15.5096 7.81378C15.4853 7.62125 15.474 7.54199 15.474 7.49378C15.478 7.37585 15.4715 7.25781 15.4546 7.14103C15.4226 6.93709 15.3586 6.68951 15.3025 6.54562C15.1941 6.27373 14.906 5.57794 14.8545 5.40482C14.8545 5.36109 14.9111 5.38541 14.9111 5.38541C14.9111 5.38541 15.0518 5.73815 15.1554 6.00994C15.2558 6.28183 15.3512 6.5213 15.3756 6.54562C15.395 6.56983 15.5471 6.83682 15.615 7.27373C15.683 7.71063 15.7072 8.11351 15.7477 8.3821C15.7671 8.5101 15.7833 8.64589 15.8238 8.78178C15.8674 8.92909 15.9353 9.08119 16.0244 9.31415C16.1005 9.50999 16.1571 9.67341 16.1878 9.81421C16.2235 9.99383 16.2235 10.1297 16.2445 10.2188C16.264 10.2948 16.293 10.4468 16.3611 10.6668C16.4291 10.8867 16.5293 11.17 16.5972 11.3464C16.73 11.6991 16.7892 11.9936 16.8093 12.1506C16.827 12.3124 16.8869 12.8723 16.8707 13.0406L16.871 13.0403Z" fill="#A88F33"/>
<path fill-rule="evenodd" clip-rule="evenodd" d="M13.6024 2.28797L13.5943 2.30739C13.5943 2.30739 13.6185 2.31549 13.6137 2.34792C13.614 2.39228 13.6113 2.43662 13.6056 2.48061C13.5976 2.53725 13.5814 2.58088 13.5782 2.61651C13.5782 2.69256 13.5895 2.77992 13.4822 2.99677C13.4502 3.05661 13.4305 3.10835 13.4142 3.14397C13.3738 3.23133 13.3657 3.24435 13.3301 3.28477C13.3867 3.25277 13.5907 3.12477 13.6941 3.14397C13.623 3.1844 13.5145 3.26376 13.4466 3.36733C13.4628 3.37053 13.5307 3.38355 13.6386 3.36733C13.8182 3.33981 14.0188 3.27507 14.1951 3.28797C14.3878 3.29928 14.3117 3.05661 14.3117 3.05661L14.0894 2.56797L13.6687 2.27197L13.6024 2.28808V2.28797Z" fill="#BE9C44"/>
<path fill-rule="evenodd" clip-rule="evenodd" d="M14.6998 5.94836C14.6998 5.94836 14.5121 5.76063 14.4361 5.11636C14.36 4.46911 14.3762 3.51636 14.3762 3.51636L14.2241 3.1442C14.2241 3.1442 14.1921 2.89663 14.1124 2.80447C14.0327 2.71231 13.8763 2.5569 13.805 2.48084C13.7338 2.40479 13.6529 2.30122 13.6044 2.285C13.6286 2.24458 13.7371 2.01642 14.1529 2.01322C14.5686 2.01002 14.6969 2.24138 14.7403 2.32554C14.7837 2.4097 14.9797 2.77354 15.0525 3.46687C15.1204 4.15935 15.1237 4.21119 15.1124 4.45066C15.1043 4.58335 15.0606 4.89076 14.9844 5.21919C14.9149 5.49759 14.8388 5.80831 14.6996 5.949L14.6998 5.94836Z" fill="#A17C34"/>
<path fill-rule="evenodd" clip-rule="evenodd" d="M14.111 6.50013C14.1736 6.50465 14.2361 6.49054 14.2907 6.4596C14.3505 6.4564 14.5674 6.48392 14.734 6.27197C14.7453 6.3204 14.7745 6.4516 14.6983 6.56808C14.7389 6.52755 14.7987 6.51144 14.8068 6.50013C14.81 6.55997 14.8667 6.7444 14.6272 7.19261C14.6918 7.12147 14.7679 7.12467 14.8358 7.11656C14.8391 7.20072 14.8844 7.48381 14.7647 7.63603C14.6854 7.7396 14.5559 7.70717 14.5559 7.70717C14.5578 7.68456 14.5578 7.66184 14.5559 7.63923C14.5527 7.59549 14.5365 7.55187 14.5479 7.52275C14.4854 7.49416 14.4284 7.45469 14.3796 7.40616C14.2388 7.27347 14.056 7.04701 14.0431 6.87869C14.0269 6.69096 14.1952 6.65053 14.1952 6.65053C14.1811 6.63792 14.1691 6.62316 14.1596 6.6068C14.1515 6.57939 14.1434 6.53565 14.111 6.50013Z" fill="#8C6228"/>
<path fill-rule="evenodd" clip-rule="evenodd" d="M12.8631 4.46444C12.8631 4.46444 12.855 4.45313 12.8114 4.50486C12.8195 4.45313 12.8276 4.40449 12.8308 4.35756C12.8515 4.3141 12.8782 4.27381 12.9102 4.23788C12.8859 4.2863 12.8696 4.33004 12.8696 4.33004C12.8696 4.33004 12.9296 4.21836 13.0169 4.15041C13.0768 4.10188 13.1528 4.07926 13.1852 4.03393C13.2208 3.9854 13.2127 3.97729 13.2208 3.96918C13.2208 3.96918 13.3001 3.91745 13.4215 3.76524C13.4376 3.74582 13.462 3.72481 13.4782 3.7054C13.5056 3.69409 13.5703 3.66497 13.6464 3.62604C13.7257 3.58241 13.8147 3.52257 13.8697 3.49804C13.9781 3.4495 14.0931 3.45441 14.1464 3.37825C14.1869 3.36694 14.2305 3.24556 14.2225 3.14209C14.2823 3.1663 14.5897 3.35724 14.695 3.77473C14.7711 4.07084 14.6351 4.52716 14.5784 4.74732C14.5218 4.96748 14.5138 5.13078 14.4344 5.23105C14.3341 5.36385 14.0105 5.55105 13.9312 5.64374C13.8632 5.7198 13.6594 5.91233 13.6674 6.05142C13.6755 6.155 13.8033 6.21142 13.8309 6.23105C13.8585 6.25068 13.8583 6.27478 13.9102 6.26305C13.962 6.25132 13.9813 6.22742 14.0024 6.22742C14.0267 6.23062 14.0267 6.23553 14.038 6.23553C14.0462 6.23529 14.0543 6.23418 14.0623 6.23222C14.0623 6.23222 14.0542 6.37953 13.7095 6.42422C13.6852 6.42753 13.661 6.43553 13.6302 6.44044C13.6707 6.42102 13.6949 6.42102 13.7387 6.36118C13.6901 6.35308 13.5509 6.34497 13.5153 6.33366C13.5266 6.31425 13.5638 6.26241 13.5945 6.2382C13.6221 6.21398 13.5913 6.2062 13.5671 6.21878C13.5254 6.24715 13.4854 6.27792 13.4473 6.31094C13.4069 6.34657 13.3713 6.3951 13.3065 6.43894C13.2871 6.3742 13.2903 6.25121 13.3665 6.16225C13.347 6.16545 13.3097 6.22209 13.2742 6.21078C13.2678 6.15176 13.2716 6.09207 13.2855 6.03436C13.3049 5.9615 13.4101 5.83372 13.4101 5.83372L13.9182 4.92588L14.0265 4.2382L12.8631 4.46422V4.46444Z" fill="#92723A"/>
<path fill-rule="evenodd" clip-rule="evenodd" d="M12.8355 4.50327C12.8355 4.50327 12.8079 4.52268 12.863 4.55991C12.8549 4.57121 12.8355 4.61164 12.8111 4.63916C12.7837 4.67116 12.7545 4.691 12.7432 4.71852C12.719 4.77516 12.6996 4.81399 12.6996 4.83831C12.6996 4.86263 12.6915 5.01793 12.6235 5.1182C12.5992 5.15383 12.5717 5.21367 12.5523 5.25409C12.5118 5.32524 12.4762 5.38209 12.4681 5.41409C12.452 5.47073 12.4407 5.62604 12.4407 5.62604C12.4407 5.62604 12.4763 5.58231 12.4892 5.5662C12.4697 5.60663 12.4487 5.65025 12.418 5.68268C12.4374 5.66647 12.494 5.62604 12.5895 5.54188C12.7222 5.43031 12.9293 5.24257 13.1818 5.09388C13.1056 5.1214 13.041 5.1214 12.9893 5.12951C13.0297 5.08908 13.3938 4.66188 13.5847 4.62145C13.5963 4.60675 13.6021 4.5883 13.6009 4.56961L13.4374 4.55351L13.1056 4.62465L13.0572 4.36865L12.8355 4.50295V4.50327Z" fill="#B18E3E"/>
<path fill-rule="evenodd" clip-rule="evenodd" d="M13.3631 5.95954C13.3631 5.95954 13.3194 6.00317 13.279 6.11165C13.2478 6.07915 13.2212 6.04267 13.1996 6.00317C13.1398 5.9029 13.0476 5.77501 12.8324 5.84786C12.8292 5.77991 12.8242 5.74429 12.8324 5.69575C12.868 5.68775 12.9764 5.60039 13.0847 5.4725C13.1609 5.38514 13.232 5.28477 13.2806 5.15698C13.3126 5.13266 13.3679 5.09223 13.4406 5.0453C13.5441 4.97415 13.6687 4.87698 13.6881 4.76861C13.6396 4.78802 13.536 4.83655 13.3806 4.82855C13.4406 4.80103 13.5327 4.77191 13.5214 4.65213C13.5457 4.63591 13.5652 4.62461 13.5652 4.62461C13.5469 4.61852 13.5277 4.61578 13.5085 4.6165C13.5052 4.60519 13.5004 4.58909 13.4729 4.59709C13.4454 4.60509 13.4409 4.60519 13.4373 4.6165C13.426 4.61981 13.3887 4.6165 13.3612 4.63602C13.3337 4.65554 13.2576 4.72007 13.2285 4.73138C13.2398 4.71197 13.2559 4.68295 13.2559 4.68295C13.2559 4.68295 13.1767 4.69095 13.12 4.71495C13.0165 4.75058 12.8968 4.81533 12.7754 4.87837C12.7867 4.85895 12.7916 4.84637 12.7996 4.84274C12.8076 4.83911 12.8271 4.83474 12.8271 4.83143C12.8271 4.82813 12.8191 4.79943 12.8239 4.78781C12.8602 4.71093 12.903 4.6373 12.9519 4.56775C13.0086 4.49159 13.0199 4.38322 13.0199 4.38322L13.2674 4.25863L13.9632 4.09863L14.4148 4.12615L14.3581 4.43847L14.0914 4.98375L13.8633 5.4805L13.6027 5.78482L13.3632 5.95954H13.3631Z" fill="#543E26"/>
<path fill-rule="evenodd" clip-rule="evenodd" d="M14.4907 4.60792C14.4907 4.60792 14.2188 4.94445 14.1427 4.99629C14.1913 4.89272 14.4907 4.27619 14.599 4.10467C14.5748 4.08525 14.5424 4.08525 14.6185 3.78467C14.5538 3.93667 14.5311 4.01603 14.4778 4.05645C14.4244 4.09688 14.4178 4.08397 14.3818 4.08397C14.3886 4.07166 14.3914 4.05753 14.3898 4.04355C14.3898 4.04355 14.1616 4.01603 14.0058 4.01603C13.8499 4.01603 13.5414 4.10019 13.3698 4.16813C13.2339 4.22477 13.1579 4.22477 13.1093 4.26029C13.0608 4.30072 13.0333 4.34445 13.009 4.35576C12.9896 4.36707 12.8974 4.39619 12.8763 4.42691C12.8569 4.45891 12.8245 4.49485 12.8245 4.50296C12.8245 4.51107 12.8164 4.52248 12.8408 4.51427C12.8488 4.51107 12.9087 4.47864 12.9766 4.43821C13.0688 4.38648 13.1805 4.32664 13.2614 4.29101C13.4928 4.19875 13.5657 4.21496 13.6691 4.19555C13.7775 4.17613 13.9329 4.1308 14.0364 4.1308C14.14 4.1276 14.3358 4.1308 14.3811 4.13891C14.3617 4.15512 14.3455 4.17453 14.3536 4.24248C14.3536 4.26189 14.3374 4.28291 14.3216 4.32984C14.2732 4.46253 14.1809 4.68259 14.1296 4.79427C14.0585 4.94627 13.9776 5.07416 13.9376 5.15341C13.8976 5.23267 13.8096 5.44141 13.7225 5.55309C13.6353 5.66477 13.5898 5.73272 13.5625 5.75704C13.5352 5.78136 13.3391 5.92525 13.3537 5.97709C13.3893 5.96579 13.6143 5.88109 13.7776 5.6972C13.9409 5.51331 13.9734 5.40109 14.1012 5.30072C14.229 5.20035 14.3294 5.03213 14.3892 4.89304C14.4394 4.76355 14.4281 4.72312 14.4911 4.60824L14.4907 4.60792Z" fill="#806031"/>
<path fill-rule="evenodd" clip-rule="evenodd" d="M8.63172 7.1198C8.63172 7.1198 8.5961 7.267 8.51514 7.33986C8.43588 7.41111 8.29508 7.47255 8.27898 7.59234C8.25956 7.71202 8.41978 7.77196 8.41978 7.77196C8.41978 7.77196 8.33231 7.91596 8.33231 8.02434C8.33231 8.13602 8.32911 8.15703 8.34042 8.2638C8.32758 8.27206 8.31667 8.28297 8.30842 8.2958C8.30842 8.2958 8.31642 8.39938 8.39578 8.46402C8.47514 8.52866 8.54298 8.56759 8.5834 8.55138C8.58958 8.56457 8.59499 8.5781 8.59962 8.59191C8.59962 8.59191 8.65956 8.4398 8.69999 8.30711C8.74042 8.17122 8.77604 8.19052 8.79215 8.0077C8.80826 7.82487 8.98415 7.51095 8.98415 7.51095L9.10415 7.24268L8.90842 7.09058L8.63172 7.1197V7.1198Z" fill="#B6903C"/>
<path fill-rule="evenodd" clip-rule="evenodd" d="M8.9955 7.38354C8.95513 7.42498 8.91788 7.46933 8.88403 7.51624C8.8323 7.58749 8.79187 7.65213 8.71582 7.67976C8.63976 7.70738 8.59123 7.70717 8.59603 7.78333C8.60083 7.85949 8.67208 7.8917 8.71251 7.93053C8.75624 7.97096 8.79187 8.0389 8.77246 8.11506C8.79667 8.10376 8.8404 8.09074 8.88083 8.00338C8.92126 7.91602 9.20403 7.38365 9.20403 7.38365H8.9955V7.38354Z" fill="#685026"/>
<path fill-rule="evenodd" clip-rule="evenodd" d="M10.1116 6.15526C10.1116 6.15526 10.1358 6.09062 10.1116 6.04369C10.0872 5.99515 9.94003 5.97894 9.86718 5.9239C9.79113 5.86726 9.69886 5.8279 9.62281 5.85275C9.63411 5.82523 9.67945 5.76529 9.64222 5.75238C9.60659 5.74107 9.47401 5.80091 9.43838 5.82843C9.40275 5.85595 9.32179 5.88827 9.30569 5.90779C9.28958 5.92731 9.26195 5.96443 9.24574 5.94822C9.22953 5.93691 9.22153 5.90779 9.19401 5.9239C9.16649 5.94001 9.03401 6.04849 9.00958 6.11163C8.98515 6.17478 8.93022 6.31558 8.76521 6.47569C8.60019 6.63579 8.52894 6.73947 8.57747 6.79931C8.62601 6.85915 8.64873 6.81553 8.65683 6.86726C8.66307 6.91805 8.66032 6.96953 8.64873 7.01937C8.62931 7.10353 8.59699 7.18278 8.64062 7.19899C8.7523 7.23462 8.86078 7.16699 8.88499 7.18769C8.93353 7.23131 8.85747 7.38833 8.97235 7.41905C9.08894 7.45105 9.20382 7.39153 9.20382 7.39153L9.62771 7.16337L10.0355 6.94822L10.2441 6.53553L10.1322 6.19089L10.1109 6.15526H10.1116Z" fill="#D4B968"/>
<path fill-rule="evenodd" clip-rule="evenodd" d="M9.71095 7.1409C9.71095 7.1409 9.6397 7.03253 9.72717 6.93695C9.81463 6.84138 9.93911 6.80106 9.98765 6.74122C9.97841 6.72982 9.96602 6.7214 9.95202 6.71701C9.98424 6.65936 10.0334 6.613 10.0928 6.58421C10.0686 6.55999 10.0362 6.54058 10.0007 6.54058C9.9213 6.54058 9.87266 6.58911 9.79991 6.58911C9.72877 6.58911 9.72066 6.55349 9.72066 6.55349C9.72066 6.55349 9.84045 6.54218 9.82903 6.48874C9.81773 6.4321 9.79703 6.4321 9.79703 6.4321C9.79703 6.4321 10.0284 6.3361 10.0688 6.2849C10.1092 6.2337 10.1044 6.17322 10.1126 6.14901C10.14 6.14901 10.3002 6.06485 10.3649 6.10047C10.4297 6.1361 10.3843 6.23317 10.3843 6.23317C10.3843 6.23317 10.5803 6.08586 10.6801 5.94143C10.7675 5.94954 10.8081 5.88159 10.8721 5.88159C10.9515 5.88159 11.0761 5.98997 11.1003 6.22133C11.1165 6.35402 11.1407 6.43007 11.1165 6.66474C11.1052 6.79743 11.1084 7.08074 11.1485 7.22133C11.1759 7.33301 11.2407 7.3217 11.2407 7.3217C11.2307 7.35573 11.211 7.3861 11.184 7.40906C11.1403 7.44949 11.1355 7.55637 11.1403 7.59679C11.1467 7.62635 11.1549 7.65552 11.1646 7.68415C11.1646 7.68415 11.1129 7.74399 11.0999 7.78453C11.0886 7.82495 11.0352 7.85247 10.9963 7.85247C10.9574 7.85247 10.9769 7.84917 10.9251 7.85247C10.8734 7.85578 10.8572 7.86378 10.8248 7.85247C10.7923 7.84117 10.7681 7.82815 10.7811 7.72447C10.7924 7.6209 10.3815 7.37983 10.3815 7.37983L9.70946 7.14037L9.71095 7.1409Z" fill="#CCA849"/>
<path fill-rule="evenodd" clip-rule="evenodd" d="M8.93901 8.16354C8.93901 8.16354 9.08621 8.35938 9.69144 8.35938C9.97944 8.35938 10.0798 8.33186 10.1394 8.31564C10.2042 8.29943 10.4469 8.20407 10.6912 7.91596C10.9113 7.65548 10.8627 7.54871 10.8627 7.54871L10.7347 7.5293L10.3187 7.58594L9.08781 8.1102L8.93848 8.16354H8.93901Z" fill="#585136"/>
<path fill-rule="evenodd" clip-rule="evenodd" d="M9.39048 8.21196C9.39048 8.21196 8.86621 8.32855 8.86621 7.99681C8.86621 7.67319 9.18984 7.33335 9.2708 7.27351C9.35496 7.21356 9.5556 7.14551 9.5556 7.14551H10.0394L10.1316 7.38988L10.0912 7.91735L9.39048 8.21185V8.21196Z" fill="#252211"/>
<path fill-rule="evenodd" clip-rule="evenodd" d="M9.87402 7.24437C9.87402 7.24437 9.77375 7.15211 9.54559 7.27637C9.31743 7.40064 9.1329 7.66037 9.12159 7.89621C9.11028 8.10485 9.29311 8.26027 9.57791 8.26837C9.78986 8.27637 9.91775 8.25216 9.9825 8.23637C9.96628 8.21696 9.88212 8.11179 9.88212 8.11179L9.87412 7.24448L9.87402 7.24437Z" fill="#C3B378"/>
<path fill-rule="evenodd" clip-rule="evenodd" d="M9.77585 7.29611C9.77585 7.29611 9.75164 7.2767 9.67985 7.31553C9.62001 7.34753 9.53265 7.43211 9.4647 7.49195C9.42097 7.52758 9.39345 7.54369 9.3687 7.57121C9.26833 7.69099 9.18417 7.88683 9.23281 7.9839C9.28145 8.08097 9.44156 8.19265 9.84934 8.11659L9.77468 7.29622L9.77585 7.29611Z" fill="#E6D89C"/>
<path fill-rule="evenodd" clip-rule="evenodd" d="M9.64269 7.49684C9.64269 7.49684 9.57794 7.59722 9.57794 7.75743C9.57794 7.92084 9.67021 8.18132 10.0101 8.20074C10.2705 8.21695 10.4453 7.82538 10.6346 7.67327C10.7786 7.55679 10.8659 7.55348 10.8659 7.55348C10.8659 7.55348 10.7187 7.39348 10.3256 7.18623C9.9372 6.97748 9.50189 6.94996 9.26562 7.27039C9.3773 7.26228 9.73816 7.17002 9.73816 7.17002L9.91458 7.22666L9.64269 7.49695V7.49684Z" fill="#252211"/>
<path fill-rule="evenodd" clip-rule="evenodd" d="M10.1503 7.70865C10.139 7.68443 10.1309 7.65201 10.1778 7.64401C10.2248 7.63601 10.2458 7.6407 10.262 7.67601C10.2782 7.71131 10.294 7.74075 10.27 7.75537C10.2458 7.76827 10.1826 7.75537 10.1502 7.70843L10.1503 7.70865ZM10.0748 7.48048C10.0748 7.48048 10.0586 7.49179 10.0667 7.46918C10.0699 7.44176 10.091 7.39312 10.1428 7.40454C10.1945 7.41595 10.1833 7.47248 10.1748 7.4887C10.1662 7.50491 10.123 7.53232 10.0906 7.5207C10.0823 7.51856 10.0755 7.51258 10.0723 7.5046C10.0691 7.49661 10.0698 7.48757 10.0744 7.48027L10.0748 7.48048Z" fill="#6F674D"/>
<path fill-rule="evenodd" clip-rule="evenodd" d="M5.69531 7.58395C5.69531 7.58395 5.82331 7.67995 5.97201 7.67621C6.11921 7.67291 6.30854 7.52091 6.3959 7.42373C6.44763 7.36709 6.4919 7.30725 6.5399 7.26032C6.58043 7.21989 6.60785 7.20048 6.62726 7.17296C6.65478 7.14096 6.6839 7.0808 6.69851 7.06128C6.66289 7.0888 6.61115 7.13744 6.55771 7.16976C6.50598 7.20176 6.3943 7.26192 6.34897 7.27813C6.30534 7.29435 5.85222 7.53413 5.85222 7.53413L5.69531 7.58395Z" fill="#AC924C"/>
<path fill-rule="evenodd" clip-rule="evenodd" d="M5.89062 6.38844C5.89062 6.38844 5.96177 6.33991 6.09937 6.30908C6.23206 6.27708 6.49905 6.25244 6.49905 6.25244L6.7191 6.34844L6.80646 6.68017L6.64646 7.02492L6.44262 7.15292L6.21116 6.78076L5.89116 6.38908L5.89062 6.38844Z" fill="#9F8E57"/>
<path fill-rule="evenodd" clip-rule="evenodd" d="M5.60253 6.68438L5.52637 6.74123C5.52637 6.74123 5.54589 6.70561 5.56199 6.59723C5.5781 6.48886 5.66237 6.22507 5.78535 6.07297C5.90834 5.92086 5.90514 5.92897 5.90514 5.92897C5.88225 5.92478 5.85866 5.93065 5.84039 5.94507C5.85661 5.90923 5.96018 5.78123 6.06375 5.71723C6.16733 5.65323 6.20775 5.63307 6.31613 5.68523C6.4245 5.73739 6.45202 5.76449 6.53138 5.76129C6.61074 5.75809 6.67858 5.67393 6.67858 5.67393C6.67858 5.67393 6.69479 5.72566 6.63495 5.84545C6.57511 5.96523 6.33885 6.2095 6.33885 6.2095L5.8469 6.54603L5.60253 6.6847V6.68438Z" fill="#EAC970"/>
<path fill-rule="evenodd" clip-rule="evenodd" d="M5.96625 6.34787C5.96625 6.34787 6.3223 6.3964 6.43067 6.29613C6.43387 6.30744 6.44689 6.30744 6.44689 6.31555C6.44602 6.32166 6.44317 6.32731 6.43878 6.33165C6.45057 6.32977 6.46247 6.3287 6.47441 6.32845C6.48866 6.33269 6.50332 6.33541 6.51814 6.33656C6.53008 6.3363 6.54198 6.3352 6.55377 6.33325C6.55149 6.3495 6.54272 6.36413 6.52945 6.37379C6.54566 6.37379 6.56145 6.37699 6.56145 6.38989C6.56145 6.4028 6.56465 6.44173 6.54523 6.44984C6.52915 6.45429 6.51203 6.45312 6.4967 6.44653C6.49798 6.47717 6.50631 6.5071 6.52102 6.534C6.55302 6.59384 6.62129 6.662 6.71302 6.64237C6.71302 6.64237 6.76145 6.75885 6.55761 7.01773C6.53019 7.05336 6.50097 7.10189 6.46545 7.14232C6.45141 7.17291 6.44068 7.20491 6.43345 7.23779C6.43345 7.23779 6.77819 7.10509 6.87686 6.80248C6.97723 6.49827 6.99665 6.19896 6.97723 5.91907C6.97393 5.83971 6.96102 5.78317 6.94161 5.74264C6.89307 5.64227 6.75707 5.65848 6.70214 5.71512C6.62278 5.79448 6.49009 5.99181 6.30566 6.12771C6.11793 6.2636 6.10993 6.28771 5.96582 6.34787H5.96625Z" fill="#D7BC6B"/>
<path fill-rule="evenodd" clip-rule="evenodd" d="M5.5394 6.78479C5.5394 6.78479 5.47145 6.82522 5.43582 6.97679C5.4002 7.1321 5.46782 7.32143 5.50697 7.38127C5.54612 7.44111 5.63497 7.60463 5.81929 7.61274C5.86491 7.6125 5.91003 7.60314 5.95198 7.58522C6.01633 7.55571 6.07668 7.51819 6.13161 7.47354C6.21097 7.4137 6.27561 7.36197 6.2675 7.35706C6.24809 7.34895 5.77886 6.96058 5.77886 6.96058L5.60244 6.76367L5.53929 6.78501L5.5394 6.78479Z" fill="#585136"/>
<path fill-rule="evenodd" clip-rule="evenodd" d="M5.98334 7.42868C5.98334 7.42868 6.0788 7.42068 6.13544 7.38505C6.19208 7.34942 5.80371 6.96436 5.80371 6.96436L5.83123 7.38036L5.98334 7.42868Z" fill="#453A25"/>
<path fill-rule="evenodd" clip-rule="evenodd" d="M5.56967 6.75553C5.56967 6.75553 5.52113 6.8478 5.52113 6.87212C5.51303 6.95137 5.53735 7.20055 5.55676 7.2798C5.57617 7.36396 5.68135 7.49175 5.81735 7.49175C5.9014 7.49175 6.01799 7.44001 6.01799 7.42711C6.01799 7.41089 5.8982 7.39511 5.86588 7.33484C5.84647 7.30284 5.83836 7.22327 5.83388 7.14284C5.83068 7.09111 5.83068 7.03447 5.85009 7.01484C5.89383 6.96631 5.90183 6.82711 5.90183 6.82711L6.05713 6.53857H5.85287L5.60849 6.69068L5.56967 6.75553Z" fill="#84754B"/>
<path fill-rule="evenodd" clip-rule="evenodd" d="M5.51074 6.84478C5.51074 6.84478 5.67074 6.63284 5.81496 6.5842C5.95917 6.53556 6.0237 6.56478 6.0237 6.56478L5.93954 6.78004L5.81976 6.91273L5.82786 6.98068C5.82786 6.98068 5.80834 7.1603 5.92813 7.28489C6.04792 7.40948 6.13688 7.40468 6.18872 7.40468C6.24056 7.40468 6.38936 7.36094 6.46541 7.18132C6.53336 7.0131 6.59 6.79732 6.4541 6.581C6.3213 6.36574 6.08674 6.35742 6.04141 6.35742C5.99608 6.35742 5.64013 6.37524 5.51074 6.84446V6.84478Z" fill="#252211"/>
<path fill-rule="evenodd" clip-rule="evenodd" d="M9.61922 7.56461C9.55938 7.53709 9.61602 7.36888 9.67586 7.31704C9.7357 7.2652 9.81175 7.20546 9.94455 7.19725C9.99298 7.19405 10.0399 7.22477 10.0319 7.2572C10.0206 7.31704 9.93644 7.4012 9.86039 7.46104C9.75522 7.5436 9.68716 7.59533 9.61922 7.56461Z" fill="#F7F7E7"/>
<path fill-rule="evenodd" clip-rule="evenodd" d="M6.38287 6.64717C6.4266 6.64397 6.48324 6.67917 6.49455 6.72653C6.50586 6.77827 6.46703 6.88184 6.38287 6.88184C6.31492 6.88184 6.2793 6.79768 6.2793 6.77347C6.28006 6.75356 6.28562 6.73413 6.29551 6.71683C6.29871 6.71192 6.30682 6.65528 6.38287 6.64717Z" fill="#F8F6DE"/>
<path fill-rule="evenodd" clip-rule="evenodd" d="M5.75144 6.68457C5.75144 6.68457 5.63976 6.7363 5.58802 6.84457C5.55106 6.92452 5.53988 7.01398 5.55602 7.10057C5.56413 7.141 5.60456 7.24126 5.63208 7.27689C5.6596 7.31252 5.69682 7.33684 5.72434 7.33353C5.75186 7.33022 5.8084 7.25748 5.8084 7.21385C5.8084 7.17022 5.8117 6.98569 5.86504 6.88532C5.91197 6.78505 5.75176 6.68468 5.75176 6.68468L5.75144 6.68457Z" fill="#D4C38B"/>
<path fill-rule="evenodd" clip-rule="evenodd" d="M5.76764 6.67637C5.74822 6.68767 5.7159 6.70389 5.7239 6.7249C5.73201 6.74431 5.79996 6.7569 5.82428 6.80426C5.8518 6.85279 5.8518 6.90453 5.84369 6.92885C5.86483 6.91881 5.88401 6.90508 5.90033 6.88831C5.93596 6.84789 5.97958 6.79295 6.01681 6.79295C6.04113 6.79295 6.06534 6.80426 6.08806 6.80426C6.12369 6.80426 6.15921 6.79295 6.16412 6.75573C6.17212 6.70719 6.09617 6.66346 6.05244 6.67157C6.06054 6.63957 6.07185 6.59231 6.03622 6.55989C6.0006 6.52746 5.88902 6.58421 5.8647 6.60042C5.84038 6.61663 5.76764 6.67647 5.76764 6.67647V6.67637Z" fill="#E2D59D"/>
<path fill-rule="evenodd" clip-rule="evenodd" d="M8.33851 10.0761L8.57798 10.0054L8.64593 10.0539C8.64593 10.0539 8.69435 10.1575 8.77051 10.1704C8.74619 10.2221 8.68305 10.2664 8.68635 10.3031C8.68966 10.3398 8.72198 10.3678 8.72198 10.3678C8.72198 10.3678 8.50673 10.7238 8.93073 11.0825C8.83035 11.1229 8.70257 11.1785 8.63462 11.2105C8.68305 11.2218 8.78662 11.2425 8.83035 11.2817C8.87409 11.321 8.87409 11.3335 8.91451 11.3578C8.95494 11.3821 8.97915 11.4144 8.97115 11.4289C8.94363 11.4127 8.85137 11.3643 8.83526 11.4095C8.81915 11.4548 8.43558 11.4371 8.43558 11.4371L7.78833 11.5616C7.78833 11.5616 7.81254 11.4969 7.74459 11.4371C7.66534 11.3659 7.56827 11.4403 7.4647 11.361C7.32881 11.2574 7.3239 11.1376 7.28027 11.0924C7.3239 11.0649 7.41297 11.0245 7.62491 10.9964C7.61681 10.9802 7.58929 10.9317 7.6055 10.888C7.62491 10.8314 7.70577 10.7958 7.68155 10.728C7.71718 10.7199 7.73329 10.7199 7.82235 10.6083C7.90651 10.4966 7.95825 10.4724 8.02299 10.4643C8.08774 10.4561 8.12657 10.4643 8.24635 10.3526C8.33041 10.2733 8.30299 10.2054 8.30299 10.2054C8.30299 10.2054 8.35793 10.1876 8.33862 10.0759L8.33851 10.0761Z" fill="#CBAC5A"/>
<path fill-rule="evenodd" clip-rule="evenodd" d="M7.63221 10.112C7.63541 10.0958 7.64842 10.0877 7.73578 10.0958C7.82314 10.1039 8.37653 10.044 8.52704 10.0359C8.67914 10.0246 9.21472 10.0326 9.4753 10.0877C9.73589 10.1427 9.99957 10.2074 10.1274 10.2398C10.2554 10.2754 10.2957 10.2882 10.2908 10.3044C10.2876 10.3206 10.2588 10.3364 10.2422 10.3319C10.2261 10.3287 9.80213 10.1992 9.67114 10.1719C9.54016 10.1446 9.08693 10.0715 8.83914 10.0759C8.60778 10.0792 8.51552 10.0727 8.31978 10.0953C8.12394 10.1197 7.80032 10.152 7.70325 10.1391C7.60725 10.1278 7.62709 10.1278 7.632 10.1115L7.63221 10.112Z" fill="#D6BC6F"/>
<path fill-rule="evenodd" clip-rule="evenodd" d="M8.93437 11.3802C8.93437 11.3802 9.26611 11.5598 9.38589 11.7799C9.47325 11.9433 9.33416 12.0242 9.33416 12.0242C9.33416 12.0242 9.52189 12.0242 9.49757 12.1278C9.48627 12.1925 9.17395 12.3672 8.9652 12.4594C8.75325 12.5517 8.76136 12.5469 8.65779 12.563C8.55741 12.5792 8.28232 12.531 8.22568 12.6116C8.16904 12.6921 8.19368 12.7751 8.20947 12.788C8.22568 12.7993 8.35677 12.8155 8.35677 12.8155C8.35677 12.8155 8.32925 12.8916 8.05747 12.8997C7.78568 12.9078 7.71763 12.9271 7.70141 12.9563C7.6852 12.9837 7.75315 12.9676 7.87784 12.9883C8.00243 13.0077 8.17715 13.0203 8.17715 13.0203C8.17715 13.0203 8.12051 13.0688 7.97331 13.1077C7.80499 13.1513 7.5412 13.1918 7.46195 13.2404C7.50237 13.2679 7.56232 13.3083 7.58995 13.3115C7.522 13.3277 7.42643 13.3633 7.41032 13.3762C7.43453 13.3925 7.46696 13.4119 7.46696 13.4119C7.46696 13.4119 7.33096 13.5753 7.25171 13.6158C7.17245 13.6564 6.71613 13.8682 6.55912 13.8278C6.16755 13.7242 6.11901 13.2954 6.02355 13.2631C5.87955 13.2145 5.8116 13.3115 5.68371 13.2436C5.74035 13.2031 5.77117 13.1789 5.83101 13.1514C5.76627 13.1194 5.43133 12.907 5.43133 12.907C5.39631 12.8307 5.35743 12.7562 5.31485 12.6838C5.25011 12.5721 5.15485 12.4232 5.08339 12.2921C4.92808 12.0041 4.91997 11.8714 4.77917 11.708C4.80349 11.676 4.88755 11.6805 4.88755 11.6805L6.06728 12.0688L8.15912 12.1294L8.70312 11.3528L8.93448 11.3803L8.93437 11.3802Z" fill="#DFC677"/>
<path fill-rule="evenodd" clip-rule="evenodd" d="M5.83594 12.5647C5.84856 12.5787 5.86328 12.5907 5.87956 12.6003C5.9201 12.6278 5.97994 12.6602 6.02036 12.7087C6.03658 12.6845 6.077 12.6407 6.14836 12.7087C6.21972 12.7766 6.30836 12.7282 6.36351 12.7443C6.42015 12.7638 6.42335 12.7718 6.42335 12.7718C6.42335 12.7718 6.45535 12.7443 6.52692 12.7152C6.57066 12.699 6.62239 12.6877 6.67903 12.6715C6.73076 12.6602 6.7874 12.644 6.82634 12.644C6.86196 12.6682 6.98975 12.804 7.50271 12.6036C7.98655 12.4159 8.09812 12.3949 8.17908 12.4239C8.18719 12.4045 8.1953 12.3672 8.31988 12.3721C8.31988 12.3204 8.21631 12.144 8.21631 12.144L7.64511 11.9482H7.33268L6.39583 12.1198L5.87668 12.416L5.83626 12.5653L5.83594 12.5647Z" fill="#C4A859"/>
<path fill-rule="evenodd" clip-rule="evenodd" d="M5.52332 12.2364C5.52332 12.2364 5.53462 12.3237 5.66412 12.416C5.79212 12.5082 5.83233 12.5632 5.83233 12.5632C5.83233 12.5632 5.85665 12.5312 5.87606 12.4986C5.89548 12.4629 5.91169 12.4225 5.94401 12.4112C6.00876 12.3837 6.15596 12.4354 6.18838 12.4273C6.2159 12.4193 6.2078 12.3627 6.23692 12.3627C6.30486 12.3594 6.34849 12.4063 6.37281 12.4063C6.39713 12.4063 6.45686 12.4031 6.46497 12.3902C6.47308 12.3773 6.47628 12.2429 6.56854 12.1781C6.66892 12.107 6.7919 12.1377 6.82454 12.1539C6.82454 12.1781 6.82774 12.2381 6.89249 12.2413C6.95724 12.2445 6.96364 12.2332 7.02049 12.2526C7.07734 12.272 7.14508 12.2494 7.1758 12.3447C7.20332 12.3367 7.26806 12.3286 7.25185 12.2364C7.28385 12.2122 7.3118 12.1959 7.37985 12.1005C7.39606 12.0763 7.42348 12.0487 7.4446 12.0131C7.50124 12.0131 7.56918 12.0018 7.65974 12.0811C7.63222 12.1005 7.61601 12.1131 7.60801 12.1328C7.63169 12.1562 7.65332 12.1817 7.67265 12.2088C7.69697 12.2408 7.71318 12.2801 7.7439 12.2882C7.81185 12.3076 7.92353 12.2801 8.04812 12.2882C8.1679 12.2963 8.26817 12.3399 8.3119 12.3675C8.32812 12.3595 8.32812 12.3562 8.36854 12.3643C8.40897 12.3724 8.43969 12.3756 8.39606 12.3238C8.42028 12.3351 8.4478 12.3595 8.47212 12.3351C8.49644 12.3108 8.51574 12.2753 8.58369 12.2672C8.65164 12.2591 8.67596 12.2704 8.70348 12.1992C8.7391 12.1119 8.61612 12.1119 8.61612 12.1119C8.61612 12.1119 8.67276 12.06 8.7359 11.9921C8.81196 11.921 8.89932 11.8287 8.92033 11.7154C8.95596 11.5067 8.75212 11.4792 8.75212 11.4792L7.76342 11.7835L6.55468 11.7235L5.52396 12.2365L5.52332 12.2364Z" fill="#927D49"/>
<path fill-rule="evenodd" clip-rule="evenodd" d="M4.63495 9.38015C4.63495 9.38015 4.60295 9.42058 4.58322 9.51605C4.56348 9.61151 4.57191 9.60021 4.5557 9.66815C4.53948 9.7361 4.34034 10.4125 4.415 10.6406C4.48967 10.8688 4.61895 10.953 4.6998 11.1374C4.71602 11.1778 4.7318 11.2021 4.74023 11.2378C4.76775 11.3574 4.74354 11.4497 4.77586 11.5695C4.78716 11.6099 4.81639 11.6568 4.86002 11.7054C4.95602 11.8056 5.1125 11.9011 5.18002 11.9691C5.27538 12.0694 5.41138 12.2734 5.5845 12.2927C5.67676 12.304 5.80786 12.2652 5.91623 12.2005C6.01223 12.1406 6.07154 12.0565 6.17223 12.0085C6.24338 11.9729 6.31943 11.96 6.38738 11.9438C6.52818 11.9163 6.65607 11.9118 6.73212 11.9276C6.8486 11.9519 7.1237 12.036 7.27612 12.036C7.39523 12.0341 7.51367 12.0178 7.62887 11.9875C7.86023 11.9196 8.14012 11.803 8.32466 11.7512C8.43303 11.7192 8.52039 11.7108 8.60946 11.6914C8.76156 11.6558 8.88935 11.6072 8.9622 11.515C8.91367 11.4583 8.85383 11.371 8.5301 11.3742C8.16284 11.3823 7.73884 11.5861 7.5301 11.6186C7.32135 11.651 7.23079 11.6784 6.99772 11.5942C6.76924 11.5092 6.76167 11.453 6.76167 11.453C6.76167 11.453 6.52178 11.2852 6.4214 10.8575C6.32103 10.4298 6.4214 10.1181 6.68199 9.82186C6.74994 9.74581 6.73372 9.67786 6.73372 9.67786C6.73372 9.67786 6.90524 9.4465 6.85831 9.22986C6.80658 9.01461 6.47484 9.05834 6.47484 9.05834L4.63506 9.38015H4.63495Z" fill="#6E6342"/>
<path fill-rule="evenodd" clip-rule="evenodd" d="M4.91221 10.1003C4.89795 10.1272 4.89124 10.1574 4.8928 10.1877C4.896 10.2313 4.90901 10.288 5.04 10.4159C5.15168 10.5274 5.12736 10.652 5.12736 10.652C5.12736 10.652 5.18357 10.6633 5.33611 10.592C5.45589 10.5353 5.49611 10.6357 5.49611 10.6357C5.53098 10.6174 5.56877 10.6054 5.60779 10.6001C5.64314 10.5968 5.67735 10.5859 5.70805 10.5681C5.70805 10.5681 5.84885 10.7121 5.97184 10.78C6.08352 10.84 6.14827 10.8804 6.20331 10.84C6.25504 10.8043 6.25504 10.7315 6.25173 10.6992C6.2389 10.6693 6.22265 10.6411 6.20331 10.615C6.16768 10.5633 6.11104 10.5033 6.10731 10.455C6.0992 10.3434 6.19147 10.2106 6.17195 10.1783C6.15243 10.146 6.07979 10.1379 5.90016 10.2026C5.71413 10.2641 4.91147 10.1007 4.91147 10.1007L4.91221 10.1003Z" fill="#39331F"/>
<path fill-rule="evenodd" clip-rule="evenodd" d="M5.33527 10.8237C5.33527 10.8237 5.24311 10.7363 5.27543 10.3123C5.31455 10.3117 5.35362 10.3155 5.39191 10.3236C5.39191 10.3236 5.44215 10.6522 5.33527 10.8237Z" fill="#292311"/>
<path fill-rule="evenodd" clip-rule="evenodd" d="M4.67871 9.05662C4.69157 9.04711 4.7035 9.03639 4.71434 9.02462C4.68234 9.08446 4.5346 9.32393 4.65439 9.701C4.77418 10.0764 5.07508 10.3563 5.44564 10.3693C5.8162 10.3823 6.01098 10.2009 6.2337 9.92916C6.32106 9.82078 6.42143 9.68478 6.51039 9.59262C6.64308 9.44852 6.74666 9.40809 6.74666 9.269C6.74666 8.9842 6.45535 8.8563 6.02655 8.72852C5.59775 8.60073 5.21098 8.61652 5.01034 8.70398C4.8146 8.79934 4.73044 8.89972 4.6786 9.05673L4.67871 9.05662Z" fill="#252211"/>
<path fill-rule="evenodd" clip-rule="evenodd" d="M6.05598 10.9514L6.08798 10.9352C6.08798 10.9352 6.09598 10.8072 6.14782 10.8106C6.19956 10.8187 6.22388 10.8868 6.21897 10.911C6.21577 10.9352 6.20286 10.9757 6.15102 10.9708C6.08308 10.9724 6.05566 10.9514 6.05566 10.9514H6.05598Z" fill="#3F3824"/>
<path fill-rule="evenodd" clip-rule="evenodd" d="M5.91211 10.4078C5.91211 10.4078 5.94411 10.3965 5.98326 10.4353C6.01526 10.4353 6.15478 10.4191 6.19851 10.4466C6.24224 10.4741 6.25515 10.4983 6.25515 10.4983C6.25515 10.4983 6.09174 10.534 6.00267 10.4983C5.91211 10.4676 5.91211 10.4078 5.91211 10.4078H5.91211Z" fill="#2D2815"/>
<path fill-rule="evenodd" clip-rule="evenodd" d="M6.63187 10.4321C6.63187 10.424 6.54451 10.3641 6.45225 10.3446C6.43603 10.3414 6.43273 10.3527 6.42025 10.3527C6.41214 10.3495 6.40894 10.3252 6.40894 10.3252L6.35646 10.3528C6.35646 10.3528 6.34835 10.3641 6.37587 10.3848C6.40009 10.4042 6.44062 10.4204 6.45193 10.4528C6.46323 10.4851 6.46323 10.4964 6.46814 10.5013C6.47134 10.5045 6.52798 10.5013 6.5555 10.4851C6.58302 10.4689 6.63486 10.4424 6.63155 10.4318L6.63187 10.4321Z" fill="#82764F"/>
<path fill-rule="evenodd" clip-rule="evenodd" d="M5.81445 10.7605C5.81445 10.7605 5.83056 10.6489 5.93904 10.644C6.05061 10.6359 6.07173 10.7443 6.07173 10.7443L6.00699 10.809C6.00699 10.8074 5.95845 10.7395 5.81499 10.7605H5.81445Z" fill="#2D2816"/>
<path fill-rule="evenodd" clip-rule="evenodd" d="M6.51881 10.28C6.51881 10.28 6.45886 10.3447 6.32627 10.3641C6.31497 10.3479 6.29065 10.3156 6.32627 10.2639C6.3619 10.2121 6.40233 10.1959 6.44275 10.212C6.47918 10.2179 6.50885 10.2444 6.51881 10.28Z" fill="#574F35"/>
<path fill-rule="evenodd" clip-rule="evenodd" d="M6.76276 10.3592C6.76607 10.343 6.75476 10.3398 6.76276 10.3317C6.77076 10.3236 6.8146 10.3075 6.82271 10.3155C6.82591 10.3188 6.82271 10.3317 6.82271 10.3475C6.82271 10.3632 6.82271 10.3795 6.8146 10.3911C6.8033 10.4073 6.77098 10.4154 6.75476 10.4106C6.73855 10.4058 6.73535 10.3831 6.73535 10.3786C6.74335 10.3754 6.76276 10.3673 6.76276 10.3592ZM7.03906 10.1845C7.03906 10.1764 7.06658 10.1602 7.0828 10.1602C7.10701 10.1602 7.10701 10.1796 7.11032 10.1845C7.11832 10.1877 7.11832 10.1812 7.12642 10.1958C7.13453 10.2104 7.14594 10.2362 7.13773 10.2524C7.12952 10.2686 7.0973 10.2798 7.0893 10.2766C7.078 10.2685 7.04237 10.1958 7.03906 10.1845Z" fill="#82764F"/>
<path fill-rule="evenodd" clip-rule="evenodd" d="M6.48242 10.3966C6.48242 10.3966 6.51805 10.4046 6.56658 10.4451C6.55037 10.4564 6.52605 10.4693 6.52605 10.4693C6.52605 10.4693 6.52285 10.4321 6.48242 10.3965V10.3966Z" fill="#6E6342"/>
<path fill-rule="evenodd" clip-rule="evenodd" d="M6.40362 10.0402C6.39552 10.0322 6.42784 10.0128 6.44725 10.016C6.46666 10.0192 6.47477 10.0322 6.49578 10.0354C6.5168 10.0386 6.5201 10.0273 6.52778 10.0192C6.53546 10.0111 6.56341 10.016 6.56821 10.0192C6.5712 10.0228 6.57391 10.0266 6.57632 10.0305C6.577 10.0181 6.58284 10.0065 6.59242 9.99854C6.605 9.9893 6.62111 9.98631 6.63616 9.99043C6.63936 10.0017 6.65557 10.0422 6.65237 10.0503C6.64917 10.0584 6.60064 10.0698 6.59242 10.0616C6.60053 10.0811 6.63616 10.1215 6.64096 10.1295C6.64576 10.1375 6.60533 10.157 6.58922 10.1538C6.56661 10.1522 6.42741 10.0713 6.4032 10.0406L6.40362 10.0402ZM6.61553 9.77166C6.61253 9.76351 6.6068 9.75664 6.59931 9.75224C6.58801 9.74904 6.55078 9.75224 6.55078 9.77166C6.55078 9.79107 6.58278 9.89966 6.61873 9.95619C6.65926 10.0128 6.68667 10.0597 6.71419 10.0727C6.73212 10.0808 6.75331 10.0738 6.76273 10.0565C6.76593 10.0484 6.77403 9.98851 6.77083 9.84771C6.76763 9.70691 6.76273 9.57102 6.75462 9.56291C6.74651 9.5548 6.71419 9.55491 6.70289 9.57102C6.69158 9.58712 6.61873 9.74744 6.61542 9.77166H6.61553Z" fill="#585136"/>
<path fill-rule="evenodd" clip-rule="evenodd" d="M6.47165 10.6004C6.47165 10.6004 6.41501 10.5647 6.35997 10.5891C6.30824 10.6134 6.31144 10.7088 6.31144 10.7088C6.33507 10.7181 6.36175 10.7151 6.38269 10.7007C6.41832 10.6765 6.46355 10.6361 6.47165 10.6005V10.6004Z" fill="#574F35"/>
<path fill-rule="evenodd" clip-rule="evenodd" d="M6.5779 10.7283C6.5747 10.6963 6.5459 10.6963 6.5459 10.6798C6.54998 10.6635 6.56465 10.6521 6.58142 10.6523C6.59763 10.6523 6.61342 10.6717 6.63326 10.6843C6.65267 10.6956 6.68179 10.7163 6.68499 10.7409C6.68819 10.7655 6.65299 10.8331 6.61385 10.8331C6.5747 10.8331 6.58633 10.7602 6.57822 10.7279L6.5779 10.7283ZM6.89028 10.6846C6.89028 10.6846 6.82553 10.704 6.83033 10.6846C6.83513 10.6652 6.84985 10.6604 6.87087 10.6604C6.88154 10.6492 6.8959 10.6423 6.91129 10.6408C6.9201 10.6404 6.92874 10.6433 6.93551 10.649C6.93551 10.649 6.97924 10.6295 6.99215 10.6408C7.00505 10.6522 6.99545 10.6522 7.00345 10.6652C7.01364 10.6796 7.02032 10.6962 7.02297 10.7137C7.02297 10.7266 6.97444 10.7541 6.93551 10.7493C6.89028 10.7396 6.89828 10.6927 6.89028 10.6846ZM7.26713 10.6117C7.26713 10.6117 7.28654 10.623 7.27043 10.6361C7.25913 10.6474 7.20249 10.6681 7.15385 10.6717C7.10531 10.6717 7.06169 10.6797 7.06169 10.6636C7.06169 10.6475 7.10211 10.615 7.12633 10.6069C7.13616 10.5946 7.15109 10.5875 7.16686 10.5875C7.18627 10.5875 7.26222 10.5794 7.28334 10.5762C7.30275 10.5729 7.31897 10.5842 7.30755 10.6004C7.30275 10.6117 7.26713 10.6117 7.26713 10.6117ZM7.37845 10.1121C7.37845 10.1121 7.35413 10.1638 7.32672 10.1638C7.2992 10.1606 7.2992 10.1525 7.2992 10.1444C7.2992 10.1331 7.32672 10.104 7.32341 10.0959C7.31541 10.0959 7.29589 10.0959 7.2992 10.0765C7.2992 10.0603 7.32672 10.0409 7.35093 10.0445C7.36923 10.0294 7.39201 10.0209 7.41568 10.0203C7.4432 10.0203 7.46741 10.0283 7.46741 10.0445C7.46741 10.0607 7.43541 10.0962 7.42368 10.1044C7.41077 10.1173 7.39456 10.1258 7.37845 10.1124V10.1121ZM7.00954 11.0684C7.00954 11.0684 6.97754 11.0717 6.97754 11.0878C6.97754 11.0959 6.98554 11.0959 6.99695 11.0911C7.00353 11.0907 7.01004 11.0896 7.01637 11.0878C7.01957 11.0911 7.01957 11.1072 7.04389 11.1072C7.06386 11.1045 7.0831 11.0979 7.10053 11.0878C7.11994 11.0798 7.13615 11.0716 7.13615 11.0558C7.12805 11.0282 7.11183 11.0152 7.08762 11.0152C7.07521 11.0144 7.06284 11.0173 7.05199 11.0233C7.05199 11.0233 7.04389 11.0071 7.01637 11.0233C6.98885 11.0396 6.99205 11.0396 7.00015 11.0477C7.01466 11.0606 7.00986 11.069 7.00986 11.069L7.00954 11.0684ZM6.82701 11.2367C6.82701 11.2286 6.86744 11.2124 6.87874 11.2173C6.89005 11.2205 6.92237 11.2819 6.92237 11.2884C6.92237 11.2965 6.88194 11.3159 6.86573 11.3159C6.84952 11.3159 6.8221 11.2884 6.8221 11.2839C6.8221 11.2807 6.84152 11.2759 6.84152 11.2726C6.84632 11.2646 6.82701 11.2451 6.82701 11.237V11.2367ZM6.69867 11.0004C6.70678 10.9972 6.70678 10.9891 6.71809 10.981C6.72526 10.9762 6.73424 10.9751 6.74241 10.9778C6.74818 10.9675 6.75829 10.9603 6.76993 10.9583C6.78934 10.9551 6.80555 10.9583 6.80193 10.9664C6.80193 10.9907 6.81814 11.0068 6.81814 11.0262C6.81814 11.0456 6.80683 11.07 6.76641 11.0862C6.72598 11.0975 6.67094 11.0975 6.66283 11.0943C6.65473 11.0911 6.64662 11.0587 6.65473 11.0424C6.66283 11.0262 6.68545 11.0085 6.69846 11.0004H6.69867Z" fill="#82764F"/>
<path fill-rule="evenodd" clip-rule="evenodd" d="M6.75148 11.0112C6.75148 11.0112 6.72396 11.0274 6.72396 11.0356C6.72152 11.0434 6.72044 11.0516 6.72076 11.0598C6.72076 11.0646 6.75639 11.0566 6.76119 11.0517C6.76279 11.0485 6.75148 11.0197 6.75148 11.0112Z" fill="#6E6342"/>
<path fill-rule="evenodd" clip-rule="evenodd" d="M6.51088 10.9352C6.52698 10.9385 6.5545 10.9352 6.57552 10.9433C6.59173 10.9514 6.60304 10.9676 6.58682 10.9871C6.57061 11.0065 6.55482 11.0356 6.51888 11.0307C6.47845 11.0275 6.43962 11.0065 6.43962 10.9903C6.43825 10.9695 6.44524 10.9491 6.45904 10.9336C6.47525 10.9207 6.48325 10.9288 6.51077 10.9352H6.51088Z" fill="#585136"/>
<path fill-rule="evenodd" clip-rule="evenodd" d="M6.49061 10.9514C6.49061 10.9514 6.43888 10.9918 6.42586 11.0114C6.40965 11.0308 6.3304 11.131 6.30618 11.1521C6.31422 11.1379 6.32339 11.1243 6.3336 11.1116C6.3016 11.1321 6.27761 11.1629 6.26565 11.199C6.24624 11.2589 6.37413 11.2913 6.45818 11.3156C6.54224 11.3399 6.57477 11.3476 6.57477 11.3476C6.54382 11.3011 6.51726 11.2518 6.49541 11.2004C6.46341 11.1243 6.44688 11.1162 6.46789 11.0806C6.4841 11.045 6.50842 11.0207 6.50842 10.9932C6.49872 10.9676 6.49061 10.9514 6.49061 10.9514Z" fill="#574F35"/>
<path fill-rule="evenodd" clip-rule="evenodd" d="M4.6467 11.0794C4.65847 11.0816 4.67055 11.0816 4.68232 11.0794C4.70654 11.0761 4.95902 10.9834 5.2228 11C5.42028 11.012 5.61601 11.0441 5.80691 11.096C6.13864 11.1834 6.55123 11.3565 6.81822 11.4553C6.88936 11.4827 6.95902 11.5314 7.01022 11.5507C7.21416 11.63 7.22216 11.63 7.34195 11.651C7.48275 11.6704 7.62675 11.6235 7.77726 11.5912C7.96168 11.5507 8.2772 11.5312 8.5539 11.4908C8.64337 11.4784 8.73162 11.4584 8.81768 11.431C8.81768 11.431 8.59763 11.651 8.07006 11.7303C7.85681 11.7627 7.64011 11.7654 7.42611 11.7384C7.25779 11.7222 7.14622 11.6979 7.06206 11.6736C6.96659 11.6461 6.77075 11.5733 6.52968 11.5136C6.36136 11.4699 6.17363 11.4376 5.95848 11.3972C5.42771 11.3 4.85171 11.1884 4.64648 11.08L4.6467 11.0794Z" fill="#252211"/>
<path fill-rule="evenodd" clip-rule="evenodd" d="M4.05023 10.0793C3.92223 10.1877 3.78645 10.2913 3.65386 10.3916L3.25418 10.6987C3.11829 10.7989 2.98559 10.9025 2.84959 11.0029C2.71359 11.1032 2.57781 11.1986 2.43359 11.2909C2.56159 11.1825 2.69738 11.0821 2.83327 10.9835C2.96917 10.8848 3.11007 10.788 3.24117 10.688L3.64085 10.3805C3.77834 10.2802 3.91103 10.1766 4.05023 10.0796V10.0793ZM3.34288 11.212C3.34288 11.212 3.48688 11.0922 3.66651 10.924C3.88976 10.7154 4.16325 10.4483 4.25061 10.3999L3.34277 11.2121L3.34288 11.212Z" fill="#CFB66C"/>
<path fill-rule="evenodd" clip-rule="evenodd" d="M3.34375 11.2121C3.415 11.1409 3.49106 11.0714 3.56711 11.0033L3.68359 10.903C3.71922 10.871 3.75975 10.8351 3.79527 10.7995C3.86642 10.7283 3.93607 10.6522 4.00722 10.5794C4.04248 10.5428 4.07977 10.5083 4.1189 10.4758C4.13846 10.4585 4.16019 10.4438 4.18354 10.4321C4.20306 10.4208 4.22407 10.4001 4.25148 10.3965C4.23538 10.4208 4.21596 10.4321 4.19975 10.4531C4.18034 10.4693 4.16412 10.4888 4.14802 10.5049C4.11239 10.5405 4.07196 10.5728 4.03634 10.6052C3.96028 10.67 3.88103 10.7332 3.80498 10.801C3.72892 10.8687 3.65778 10.9418 3.58162 11.0097C3.49916 11.0794 3.42311 11.1473 3.34375 11.2124V11.2121ZM4.31173 10.5648C4.31173 10.5648 3.78426 11.0811 3.67578 11.1651L4.31173 10.5648Z" fill="#CFB66C"/>
<path fill-rule="evenodd" clip-rule="evenodd" d="M4.31173 10.5647C4.26428 10.6196 4.2134 10.6715 4.15941 10.72L3.99941 10.8721C3.94767 10.9238 3.89903 10.9757 3.8441 11.0274C3.78746 11.076 3.73573 11.1234 3.67578 11.1682L3.83109 11.0161C3.88293 10.9644 3.93957 10.9208 3.99461 10.8689L4.14991 10.7168C4.20325 10.6635 4.25509 10.6116 4.31173 10.5647ZM4.33567 10.8446C4.28705 10.9803 4.22976 11.1127 4.16415 11.2411C4.02826 11.5129 3.82442 11.8527 3.73535 12.0259L4.33567 10.8446Z" fill="#CFB66C"/>
<path fill-rule="evenodd" clip-rule="evenodd" d="M4.33505 10.8447C4.33505 10.9046 4.31883 10.9564 4.29942 11.0081C4.2805 11.0599 4.25892 11.1107 4.23478 11.1602C4.21046 11.2088 4.18294 11.2606 4.15542 11.3076C4.1279 11.3545 4.09558 11.4029 4.07126 11.4516L3.90785 11.7396C3.85121 11.8356 3.79617 11.9321 3.73633 12.0244C3.77675 11.9208 3.83179 11.8237 3.88363 11.7282C3.94027 11.6322 3.99201 11.5362 4.04363 11.4369C4.06884 11.3875 4.09152 11.3367 4.11158 11.2849C4.13579 11.2331 4.16001 11.1846 4.17953 11.1376C4.20374 11.0859 4.22315 11.0373 4.24747 10.9904C4.27489 10.9402 4.29761 10.8917 4.33483 10.8447L4.33505 10.8447Z" fill="#CFB66C"/>
<path fill-rule="evenodd" clip-rule="evenodd" d="M4.91173 12.1716C4.91173 12.1716 4.75173 12.3836 4.76773 12.6522C4.81135 12.5115 4.86639 12.2962 4.91173 12.1716ZM5.06353 12.3841C5.06353 12.3841 5.00689 12.9601 4.95996 13.2433C5.02631 12.9159 5.03921 12.9435 5.06353 12.3841ZM6.12328 13.2773C6.12328 13.2773 5.88381 13.9813 5.87891 14.177C5.93075 13.9758 6.03101 13.5648 6.12328 13.2768V13.2773Z" fill="#DEC270"/>
<path fill-rule="evenodd" clip-rule="evenodd" d="M6.68347 12.1279C6.68347 12.1279 7.07185 12.7687 7.36315 13.3156C7.28433 13.0404 7.10299 12.5356 6.68347 12.1279Z" fill="#CBAF59"/>
<path fill-rule="evenodd" clip-rule="evenodd" d="M7.72754 13.0713C7.94077 13.4482 8.13307 13.8366 8.30354 14.2347C8.27122 13.9596 8.18375 13.4888 7.72754 13.0713Z" fill="#E3C677"/>
<path fill-rule="evenodd" clip-rule="evenodd" d="M10.7952 14.0161C10.8598 13.9756 10.9877 13.7555 11.0994 13.7005C11.211 13.6439 11.2951 13.6326 11.3955 13.5209C11.4958 13.4043 11.5235 13.3332 11.7433 13.241C12.0509 13.1082 11.8393 12.9367 11.8393 12.9367C11.8732 12.9034 11.9094 12.8726 11.9477 12.8445C12.0271 12.7847 12.1192 12.7118 12.1112 12.5839C12.0999 12.3688 12.0595 12.0565 11.8831 11.8753C12.0546 11.8396 12.383 11.8154 12.5871 11.7637C12.8232 11.7037 12.9317 11.6196 12.9317 11.6196C12.9317 11.6196 12.7958 11.3882 13.0159 11.1553C13.2359 10.9223 13.4156 10.7831 13.5482 10.5225C13.3961 10.5031 13.1642 10.4222 12.5725 10.6471C12.6044 10.6621 12.6352 10.6794 12.6647 10.6988C12.6647 10.6988 12.3007 10.7992 12.168 10.9109C11.9365 11.1066 11.9074 11.2668 11.6566 11.3866C11.4058 11.5064 11.1534 11.474 10.9447 11.571C10.7361 11.6681 10.7053 11.7507 10.6291 11.7863C10.6453 11.8057 10.6259 11.838 10.6566 11.8655C10.6372 11.8931 10.5239 12.0775 10.409 12.0775C10.4204 12.1212 10.5174 12.1535 10.5174 12.1535C10.5174 12.1535 10.4463 12.2054 10.265 12.2183C10.3572 12.3143 10.4447 12.4189 10.6857 12.571C10.6663 12.6115 10.5854 12.6714 10.6178 12.7475C10.6534 12.8235 10.7458 12.9271 11.1145 13.0113C10.9268 13.0193 10.7069 13.063 10.4105 13.0226C10.1144 12.9869 10.0659 12.9659 9.88308 13.0113C9.90249 13.0307 9.95422 13.0307 9.99956 13.0824C9.95102 13.0856 9.64681 13.0468 9.54324 13.1828C9.43486 13.3235 9.38793 13.5549 9.39604 13.7102C9.3394 13.7378 9.28436 13.7863 9.31188 13.8867C9.3394 13.987 9.4834 14.0194 9.57566 14.0824C9.66782 14.1503 9.67593 14.1746 9.7634 14.1585C9.85556 14.139 9.99145 14.0469 10.0708 14.0469C10.1502 14.0469 10.2067 14.1067 10.2067 14.1067C10.2067 14.1067 10.422 14.0031 10.443 14.0226C10.4624 14.042 10.4462 14.1666 10.4672 14.186C10.4885 14.2006 10.731 14.0566 10.7957 14.0161H10.7952Z" fill="#ECD592"/>
<path fill-rule="evenodd" clip-rule="evenodd" d="M15.4987 7.54053C14.4873 4.92891 11.9873 4.44507 11.9873 4.44507H4.8546L4.88212 7.10523H6.3026V13.0454H4.85449V15.7007H11.7899C13.4613 15.7007 14.8012 14.0211 14.8012 14.0211C16.9468 10.9758 15.4985 7.54053 15.4985 7.54053H15.4987ZM11.8274 12.2314C11.8274 12.2314 11.2834 13.0163 10.6915 13.0163H9.50755L9.47949 7.11172H10.999C10.999 7.11172 11.703 7.25892 12.1948 8.6521C12.1948 8.6521 12.8469 10.6468 11.8274 12.2314Z" fill="white" fill-opacity="0.8"/>
</svg>
