<svg width="20" height="20" viewBox="0 0 20 20" fill="none" xmlns="http://www.w3.org/2000/svg">
<rect x="0.5" y="0.5" width="19" height="19" rx="9.5" stroke="white"/>
<path d="M19.7005 12.419C18.365 17.7762 12.939 21.0365 7.58115 19.7006C2.22556 18.365 -1.03472 12.9387 0.301438 7.58197C1.63642 2.22419 7.06239 -1.03634 12.4186 0.299234C17.776 1.63481 21.0361 7.0617 19.7004 12.4191L19.7005 12.419H19.7005Z" fill="#F7931A"/>
<path d="M19.4578 12.3587L19.446 12.406C18.1237 17.601 12.8497 20.7566 7.64163 19.458C2.42004 18.1559 -0.758737 12.8653 0.544006 7.64248L0.544021 7.64242C1.84562 2.41861 7.13591 -0.760352 12.3581 0.541807L12.3581 0.54181C17.5815 1.84398 20.7601 7.13516 19.4578 12.3587Z" stroke="black" stroke-opacity="0.2" stroke-width="0.5" style="mix-blend-mode:plus-darker"/>
<path fill-rule="evenodd" clip-rule="evenodd" d="M14.4108 8.57528C14.6099 7.2445 13.5967 6.52915 12.2113 6.05194L12.6607 4.24928L11.5634 3.97585L11.1259 5.73105C10.8374 5.6591 10.5411 5.59131 10.2467 5.5241L10.6874 3.75732L9.59071 3.48389L9.14103 5.28596C8.9023 5.23161 8.66783 5.17789 8.44035 5.12129L8.44162 5.11562L6.92837 4.73773L6.63646 5.90976C6.63646 5.90976 7.45059 6.09638 7.43344 6.10786C7.8778 6.21877 7.95815 6.51292 7.94481 6.74608L7.43285 8.79973C7.46345 8.8075 7.50314 8.81875 7.54693 8.83634L7.51511 8.8284L7.51507 8.82839C7.48799 8.82161 7.45984 8.81457 7.43094 8.80765L6.71335 11.6845C6.65904 11.8195 6.52121 12.0221 6.21053 11.9452C6.22153 11.9611 5.41297 11.7462 5.41297 11.7462L4.86816 13.0023L6.29617 13.3582C6.45255 13.3975 6.60708 13.4377 6.76005 13.4776L6.76014 13.4776C6.867 13.5055 6.9731 13.5332 7.07853 13.5601L6.62444 15.3835L7.7205 15.6569L8.17019 13.8529C8.46962 13.9342 8.76021 14.0092 9.04469 14.0798L8.59651 15.8753L9.6939 16.1488L10.1479 14.3288C12.0191 14.683 13.4261 14.5402 14.0183 12.8477C14.4955 11.4851 13.9946 10.6991 13.0101 10.1865C13.7272 10.0212 14.2672 9.54959 14.4112 8.57543L14.4109 8.57518L14.4108 8.57528ZM11.9037 12.091C11.5925 13.3411 9.63565 12.8243 8.7403 12.5878C8.65976 12.5665 8.58781 12.5475 8.52642 12.5323L9.129 10.1167C9.20382 10.1354 9.29525 10.1559 9.39883 10.1791C10.325 10.387 12.2224 10.8128 11.9037 12.091H11.9037ZM9.58421 9.058C10.3307 9.25721 11.9591 9.6918 12.2427 8.55554H12.2428C12.5323 7.39342 10.9498 7.04305 10.1769 6.87193C10.09 6.85268 10.0133 6.8357 9.95062 6.82008L9.4043 9.01089C9.45588 9.02375 9.51641 9.0399 9.58421 9.058Z" fill="white"/>
</svg>
