<svg width="88" height="88" viewBox="0 0 88 88" fill="none" xmlns="http://www.w3.org/2000/svg">
<g opacity="0.6">
<path d="M14 6.3253C14 2.83193 16.8319 0 20.3253 0H67.6747C71.1681 0 74 2.83193 74 6.3253V37.5H14V6.3253Z" fill="url(#paint0_linear_30_21744)"/>
<rect x="18" y="10" width="37" height="3" rx="1.5" fill="#939394"/>
<rect x="18" y="17" width="29" height="3" rx="1.5" fill="#939394"/>
<rect x="18" y="24" width="20" height="3" rx="1.5" fill="#939394"/>
<path d="M0 37.4329H88V81.6747C88 85.1681 85.1681 88 81.6747 88H6.3253C2.83193 88 0 85.1681 0 81.6747V37.4329Z" fill="url(#paint1_linear_30_21744)"/>
<rect width="23.0814" height="2.89811" rx="1.44906" transform="matrix(0.691457 -0.722418 0.691457 0.722418 35.0859 69.9062)" fill="#939394"/>
<rect width="23.0814" height="2.89811" rx="1.44906" transform="matrix(-0.691457 -0.722418 -0.691457 0.722418 53.0508 69.9062)" fill="#939394"/>
<path d="M13.998 23L14 37.5H0L13.998 23Z" fill="#B7B8C9" fill-opacity="0.3"/>
<path d="M74.002 23L74 37.5H88L74.002 23Z" fill="#B7B8C9" fill-opacity="0.3"/>
</g>
<defs>
<linearGradient id="paint0_linear_30_21744" x1="44" y1="0" x2="44" y2="37.5" gradientUnits="userSpaceOnUse">
<stop stop-color="#B7B8C9" stop-opacity="0.8"/>
<stop offset="1" stop-color="#B7B8C9" stop-opacity="0"/>
</linearGradient>
<linearGradient id="paint1_linear_30_21744" x1="44" y1="37.4329" x2="44" y2="88" gradientUnits="userSpaceOnUse">
<stop stop-color="#B7B8C9" stop-opacity="0.8"/>
<stop offset="1" stop-color="#B7B8C9" stop-opacity="0"/>
</linearGradient>
</defs>
</svg>
